<svg width="283" height="137" viewBox="0 0 283 137" fill="none" xmlns="http://www.w3.org/2000/svg">
<path d="M133.734 11.6365C133.464 12.1538 132.251 13.499 130.97 14.5855C129.352 15.9824 128.746 16.9654 128.813 18.2071C128.881 19.7592 128.948 19.7592 129.352 18.5175C129.555 17.7932 130.768 16.2928 131.981 15.2581L134.138 13.3438L136.834 15.2581C138.25 16.2928 139.598 17.6897 139.733 18.2588C140.003 19.2935 140.003 19.2935 140.137 18.2071C140.137 17.5862 139.328 16.2411 138.183 15.3098C137.104 14.3268 135.756 12.8782 135.149 12.0504C134.273 10.757 134.138 10.7052 133.734 11.6365Z" fill="black"/>
<path d="M134.341 17.0171C134.341 18.3105 134.475 18.8279 134.61 18.1553C134.745 17.5345 134.745 16.4997 134.61 15.8271C134.475 15.2063 134.341 15.7237 134.341 17.0171Z" fill="black"/>
<path d="M130.768 17.7931C130.768 17.8966 131.375 18.7761 132.116 19.7074C133.599 21.5699 133.936 21.0008 132.655 18.8279C131.981 17.7414 130.768 17.0171 130.768 17.7931Z" fill="black"/>
<path d="M136.632 18.6727C136.026 20.2765 136.497 20.38 137.374 18.8279C137.778 18.1036 137.913 17.5344 137.576 17.5344C137.239 17.5344 136.834 18.0518 136.632 18.6727Z" fill="black"/>
<path d="M110.614 21.4665C110.614 22.0356 110.816 22.1908 111.018 21.7769C111.22 21.4147 111.153 20.9491 110.951 20.7939C110.748 20.587 110.546 20.8974 110.614 21.4665Z" fill="black"/>
<path d="M117.354 21.0008C117.287 21.6734 120.455 23.7429 121.601 23.7429C122.005 23.7429 121.398 23.2772 120.253 22.7599C119.039 22.1908 117.961 21.4665 117.759 21.0526C117.556 20.6387 117.354 20.5869 117.354 21.0008Z" fill="black"/>
<path d="M150.316 21.6217C149.979 22.1908 149.035 22.8116 148.226 22.9668C147.485 23.1738 147.013 23.4325 147.215 23.5877C147.754 24.0016 151.664 22.0356 151.664 21.3112C151.664 20.3282 151.125 20.4835 150.316 21.6217Z" fill="black"/>
<path d="M124.971 23.329C125.106 24.2603 125.51 25.088 125.982 25.1915C126.454 25.295 126.589 25.0363 126.252 24.4155C125.847 23.5877 125.982 23.5877 127.465 24.5189C130.97 26.7954 131.644 26.9506 129.083 24.8811C126.252 22.5529 127.061 21.8286 130.364 23.7946C131.577 24.5189 131.981 24.6224 131.712 24.0533C131.375 23.3807 126.859 21.6734 125.376 21.6734C125.039 21.6734 124.836 22.3977 124.971 23.329Z" fill="black"/>
<path d="M133.532 22.5012C133.532 23.0703 133.734 23.2255 133.936 22.8116C134.138 22.4494 134.071 21.9838 133.869 21.8286C133.667 21.6217 133.464 21.9321 133.532 22.5012Z" fill="black"/>
<path d="M139.733 22.5012C138.587 22.9668 137.441 23.6911 137.172 24.1568C136.902 24.7776 137.239 24.6741 138.385 23.8464C139.935 22.7599 141.553 22.346 141.553 23.0703C141.553 23.2773 140.542 24.2603 139.396 25.2433L137.172 27.0023L139.329 25.8641C140.542 25.2433 141.89 24.312 142.227 23.8464C142.901 23.0703 142.968 23.122 142.631 24.1568C142.497 24.8811 142.631 25.295 143.036 25.1915C143.44 25.088 143.845 24.2603 143.912 23.329C144.114 21.4147 143.171 21.2078 139.733 22.5012Z" fill="black"/>
<path d="M102.727 22.7599C97.8739 24.105 98.0087 29.227 102.997 31.6069L105.356 32.6934L103.603 33.8833C101.986 34.918 101.918 35.0733 102.997 35.7458C104.615 36.7806 107.648 37.7118 109.4 37.7118C110.209 37.6601 109.266 37.2462 107.311 36.7288C105.356 36.2115 103.603 35.6424 103.401 35.4871C102.727 34.9698 103.806 34.142 106.367 33.0555C108.457 32.2277 108.659 32.0725 107.311 32.0208C101.581 31.969 97.6043 26.8988 101.244 24.2603C103.266 22.8634 103.603 22.9668 103.266 24.9328C102.929 27.1058 104.008 27.7784 108.254 28.1923C110.074 28.3992 112.097 28.8648 112.703 29.2787C113.714 29.9513 113.849 29.8996 114.051 28.5544C114.254 27.261 114.523 27.1058 116.613 27.2093C118.231 27.261 119.444 27.7266 120.522 28.6579C121.399 29.4339 122.208 29.9513 122.41 29.7961C122.612 29.6926 121.668 28.8648 120.32 27.9336C118.635 26.7954 117.219 26.3297 115.602 26.3297C114.119 26.3297 113.04 26.0193 112.636 25.3985C112.231 24.9328 111.894 24.7776 111.894 25.1398C111.894 25.4502 112.231 25.9158 112.568 26.071C112.973 26.2263 113.243 26.8471 113.243 27.3645C113.243 28.244 112.973 28.2957 111.49 27.8818C110.546 27.5714 108.929 27.3645 107.85 27.3645C106.772 27.3645 105.491 27.2093 104.884 27.054C103.469 26.6401 103.401 23.7429 104.817 23.7429C105.356 23.7429 105.828 23.5359 105.828 23.2773C105.828 22.5529 104.277 22.2943 102.727 22.7599Z" fill="black"/>
<path d="M113.242 22.7081C113.782 23.0185 116.747 24.1568 119.781 25.295C125.847 27.5714 128.072 29.5374 128.072 32.5899L128.004 34.3489L127.128 32.4346C125.847 29.7443 124.297 28.037 122.544 27.3127C121.196 26.8471 121.264 26.9505 122.814 27.9853C124.971 29.4339 126.049 31.0378 126.049 32.6416L125.982 33.8315L125.038 32.5381C123.69 30.7273 123.758 31.6069 125.173 33.8315C125.78 34.8145 126.589 35.6423 126.858 35.6423C127.195 35.6423 127.33 35.7975 127.195 36.0045C126.993 36.2632 127.128 36.9358 127.465 37.6083C128.206 39.1087 129.622 38.5396 129.218 36.884C129.083 36.2114 129.352 35.3836 129.824 35.0732C130.431 34.7111 130.498 34.142 130.094 33.2624C129.689 32.5381 129.689 31.5551 130.094 30.7791C130.566 29.7443 130.498 29.5374 129.555 29.6409C128.948 29.7443 127.735 29.0718 126.791 28.244C125.847 27.4162 122.342 25.7089 119.039 24.4672C112.973 22.2425 111.288 21.7251 113.242 22.7081ZM129.218 31.0895C129.015 31.5034 128.813 31.3482 128.813 30.7791C128.746 30.21 128.948 29.8995 129.15 30.1065C129.352 30.2617 129.42 30.7273 129.218 31.0895Z" fill="black"/>
<path d="M111.288 23.5359C111.288 24.105 111.49 24.2602 111.692 23.8464C111.894 23.4842 111.827 23.0186 111.625 22.8634C111.422 22.6564 111.22 22.9668 111.288 23.5359Z" fill="black"/>
<path d="M153.484 23.2772C152.877 23.5359 152.001 23.6394 151.664 23.4842C151.26 23.329 150.99 23.3807 150.99 23.6394C150.99 23.8981 149.44 24.6224 147.552 25.295C145.665 25.9676 143.238 27.3127 142.16 28.244C141.081 29.1752 140.003 29.9513 139.733 29.8996C139.464 29.8996 139.126 30.1582 138.992 30.5721C138.857 31.0378 138.992 30.986 139.464 30.4687C140.542 29.3304 140.407 30.6756 139.261 32.7968C138.452 34.2972 138.452 34.6593 139.194 35.125C140.138 35.7458 139.868 38.6948 138.857 39.2639C138.587 39.4191 138.25 40.5573 138.048 41.8508C137.711 43.8168 137.778 43.972 138.385 42.8855C143.643 33.3142 149.844 26.5884 153.08 26.9506C154.293 27.054 154.765 27.4679 154.9 28.5544C155.102 29.8996 155.169 29.8996 156.585 29.1752C157.394 28.7613 158.876 28.3992 159.888 28.3992C164.269 28.3992 167.235 26.3297 165.819 24.2602C165.28 23.4325 165.28 23.2255 166.089 23.2255C167.504 23.2255 169.19 25.295 169.19 27.0023C169.19 29.1752 165.347 32.0208 162.382 32.0208H160.09L162.719 33.2107C164.202 33.8316 165.482 34.6076 165.617 34.918C165.954 35.6941 160.966 37.1944 156.315 37.7118C152.877 38.074 152.81 38.1257 155.439 38.1774C158.944 38.2292 164.606 36.9358 166.089 35.6941C167.167 34.8146 167.1 34.7111 165.415 33.8316L163.662 32.952L166.156 31.6586C170.47 29.4339 171.347 25.9676 168.179 23.5877C166.965 22.6564 163.123 22.3977 163.123 23.2255C163.123 23.4842 163.528 23.7429 164.067 23.7429C165.347 23.7429 165.954 25.1398 165.145 26.278C164.673 26.9506 163.393 27.3127 160.292 27.5197C157.933 27.6749 155.911 27.6749 155.776 27.5714C155.574 27.4162 155.978 26.6401 156.585 25.8641C157.191 25.0363 157.731 23.9498 157.663 23.3807C157.663 22.8633 157.326 23.2772 156.854 24.2602C156.113 25.8641 155.708 26.1228 153.214 26.3815C149.777 26.6919 148.226 27.7266 144.789 31.7103C142.429 34.5559 142.227 34.6593 142.632 33.0038C143.238 30.5721 144.115 29.3822 146.137 27.9853C147.62 27.0023 147.687 26.8471 146.474 27.3127C144.586 28.037 142.497 30.3134 141.688 32.5381L141.014 34.3489L140.946 32.5381C140.812 29.4339 142.901 27.6231 149.305 25.295C152.473 24.1568 155.034 23.0703 155.034 22.9668C155.034 22.6047 154.9 22.6564 153.484 23.2772Z" fill="black"/>
<path d="M135.554 24.5707C135.554 25.1398 135.756 25.295 135.958 24.8811C136.16 24.5189 136.093 24.0533 135.891 23.8981C135.689 23.6911 135.486 24.0015 135.554 24.5707Z" fill="black"/>
<path d="M78.8653 25.0363C78.8653 25.4502 79.6067 26.3297 80.5504 27.054C81.4941 27.7784 82.2356 28.8648 82.2356 29.5374C82.1682 31.6586 79.6741 35.0215 76.3712 37.5049C74.6187 38.7983 73.5402 39.7296 74.0794 39.5226C74.6861 39.2639 74.8883 39.3674 74.6861 39.833C74.4839 40.2469 74.012 40.5574 73.675 40.5574C73.2706 40.5574 72.6639 40.7643 72.3269 41.023C71.9898 41.2817 72.1246 41.3334 72.5965 41.1265C73.2706 40.8678 73.4054 41.3851 73.1357 43.2477L72.8661 45.731L73.4728 43.4029C74.2816 40.4021 77.2475 38.2292 80.483 38.2292C82.977 38.2292 84.6622 39.3157 83.9881 40.5574C83.7859 41.023 83.8533 41.2299 84.2578 41.0747C85.2689 40.6091 85.0666 38.9535 83.9207 38.2292C82.7074 37.4531 79.9438 37.2979 77.5171 37.867C75.8994 38.2809 75.8994 38.2292 77.7868 37.1427C79.8764 35.901 82.9096 31.4517 82.9096 29.5891C82.9096 28.9683 82.1008 27.7266 81.1571 26.8471C79.1349 25.0363 79.4719 24.2085 81.7637 25.2432C83.1119 25.9158 83.1793 25.9158 82.303 25.1398C81.1571 24.0533 78.8653 24.0016 78.8653 25.0363Z" fill="black"/>
<path d="M188.94 24.6224C190.423 24.9328 190.423 24.9328 187.996 26.8471C186.176 28.244 185.974 28.6579 186.378 30.3135C186.985 32.952 188.468 34.9698 191.029 36.8323C192.984 38.2292 193.051 38.3327 191.434 37.9188C190.49 37.6601 188.737 37.5049 187.524 37.5566C186.041 37.6084 185.502 37.4531 185.771 37.0393C186.041 36.6771 185.974 36.6254 185.637 36.8323C185.3 37.091 185.03 37.4531 185.03 37.6084C184.963 37.8153 184.693 38.5396 184.423 39.2122C183.952 40.1952 184.154 40.6608 185.097 41.1782C186.176 41.799 186.243 41.9542 185.367 42.3681C184.76 42.6786 184.693 42.8855 185.165 42.8855C186.648 42.8855 186.917 41.6956 185.637 40.9712C183.749 39.8848 185.232 38.5396 188.535 38.3327C190.894 38.1775 191.501 38.3844 193.388 40.04C195.343 41.799 195.478 42.1612 195.343 45.2137C195.276 47.0245 195.006 48.4214 194.804 48.3179C194.602 48.2144 193.995 48.6283 193.456 49.2491C192.647 50.3356 192.647 50.3356 193.793 49.6113C194.939 48.887 194.939 48.887 194.265 49.9735C193.119 51.629 193.254 51.9395 194.804 50.9047C195.545 50.3874 195.95 49.8182 195.815 49.6113C195.343 48.9905 196.219 47.4901 196.894 47.8005C197.635 48.1627 198.579 46.7658 200.533 42.3164C202.286 38.2809 203.971 36.5736 207.611 35.125C211.453 33.6246 214.419 33.4177 219.07 34.2972C224.126 35.2802 224.934 35.0733 220.958 33.8316C211.925 31.0378 201.342 35.0733 199.253 42.1095C197.365 48.3696 196.826 48.7318 196.085 44.2824C195.882 42.782 195.411 41.1265 195.141 40.6091C194.669 39.833 194.804 39.6778 195.545 40.04C196.085 40.2469 194.939 39.2122 193.051 37.6601C187.052 32.8486 185.637 28.7614 189.142 26.5884C191.029 25.3985 190.894 24.2085 188.872 24.312C187.861 24.3637 187.861 24.4155 188.94 24.6224ZM194.197 39.1087C195.074 39.9365 195.006 39.9883 193.995 39.3157C193.321 38.9535 192.782 38.5396 192.782 38.4361C192.782 38.0223 193.321 38.2809 194.197 39.1087Z" fill="black"/>
<path d="M186.041 25.8641C185.569 26.4332 185.367 27.054 185.569 27.1575C185.704 27.261 186.176 26.7954 186.58 26.071C187.524 24.5189 187.052 24.3637 186.041 25.8641Z" fill="black"/>
<path d="M139.868 27.3645C139.194 27.9336 138.789 28.5027 138.991 28.6579C139.194 28.8131 139.868 28.3475 140.474 27.6231C141.823 26.071 141.553 25.9676 139.868 27.3645Z" fill="black"/>
<path d="M128.072 27.261C128.072 27.8818 129.352 28.6061 129.824 28.244C129.959 28.1405 129.69 27.7266 129.083 27.3645C128.476 26.9506 128.072 26.9506 128.072 27.261Z" fill="black"/>
<path d="M83.6512 28.1922C83.6512 28.7614 83.8534 28.9166 84.0556 28.5027C84.2578 28.1405 84.1904 27.6749 83.9882 27.5197C83.786 27.3127 83.5838 27.6231 83.6512 28.1922Z" fill="black"/>
<path d="M184.895 29.6926C184.895 30.8308 185.03 31.2447 185.165 30.5721C185.3 29.9513 185.3 29.02 185.165 28.5027C184.963 28.037 184.828 28.5544 184.895 29.6926Z" fill="black"/>
<path d="M73.4727 29.1235C73.0683 29.5374 72.7987 30.4169 73.0009 31.0895C73.2705 32.176 73.2705 32.1242 73.4053 30.8825C73.4053 30.1065 74.012 29.227 74.6861 28.9683C75.2927 28.6579 75.4949 28.3992 75.0905 28.3992C74.6861 28.3992 73.9446 28.7613 73.4727 29.1235Z" fill="black"/>
<path d="M189.209 29.3305C188.535 29.8478 188.063 30.5204 188.063 30.7791C188.063 30.986 188.535 30.6756 189.142 30.0548C189.681 29.4339 190.49 29.0718 190.894 29.227C191.366 29.4339 191.434 29.3305 191.164 29.02C190.557 28.244 190.49 28.244 189.209 29.3305Z" fill="black"/>
<path d="M193.793 28.9166C193.456 29.3305 193.523 29.4857 193.995 29.227C194.399 29.0718 195.073 29.3822 195.478 29.9513C196.422 31.3482 195.208 33.2625 193.59 32.7968C192.647 32.5382 192.579 32.5899 193.321 33.159C194.062 33.7281 194.467 33.6246 195.545 32.5899C197.163 31.0895 197.163 30.8826 195.613 29.3822C194.602 28.5027 194.197 28.3992 193.793 28.9166Z" fill="black"/>
<path d="M83.6511 30.8825C83.6511 31.5551 83.1119 32.7451 82.5726 33.5729C81.966 34.4524 81.6963 35.125 81.8311 35.125C82.64 35.125 84.3252 31.8655 84.0555 30.8308C83.7859 29.6926 83.7859 29.6926 83.6511 30.8825Z" fill="black"/>
<path d="M133.869 32.2794C134.408 34.1937 134.812 34.6076 134.812 33.2624C134.812 32.7451 134.475 31.9173 134.138 31.5034C133.599 30.9343 133.532 31.1412 133.869 32.2794Z" fill="black"/>
<path d="M154.63 31.8138C153.416 32.5381 153.416 32.5381 155.034 31.969C157.124 31.2447 157.461 30.986 156.652 30.986C156.248 30.986 155.371 31.3482 154.63 31.8138Z" fill="black"/>
<path d="M115.265 32.176C115.265 32.3312 116.074 32.7968 117.017 33.3142C118.028 33.7798 118.568 33.935 118.365 33.6246C117.893 33.0555 115.265 31.8138 115.265 32.176Z" fill="black"/>
<path d="M52.2398 32.9003C50.0154 33.2624 45.0948 34.7628 45.3644 34.9698C45.4992 35.0732 47.5214 34.7628 49.8806 34.2972C55.2057 33.2624 58.913 33.6246 62.8226 35.6423C65.9233 37.1944 66.6648 38.2292 69.4958 44.0754C70.2373 45.731 71.0462 47.0244 71.181 46.8692C71.7876 46.4036 68.4847 38.85 67.0018 37.3497C64.3729 34.7111 56.1494 32.2277 52.2398 32.9003Z" fill="black"/>
<path d="M151.259 33.3659C150.046 34.0902 150.046 34.142 151.529 33.5729C152.338 33.2625 153.012 32.9003 153.012 32.7968C153.012 32.3829 152.675 32.4864 151.259 33.3659Z" fill="black"/>
<path d="M186.041 34.0385C186.041 34.3489 186.311 34.7111 186.715 34.8663C187.12 35.0215 187.187 34.8146 186.985 34.4007C186.513 33.4694 186.041 33.3142 186.041 34.0385Z" fill="black"/>
<path d="M120.59 35.2802C122.342 36.7288 122.679 36.9358 122.679 36.2632C122.679 36.0562 121.803 35.4354 120.792 34.918L118.972 33.935L120.59 35.2802Z" fill="black"/>
<path d="M38.5565 35.7458C39.0957 36.4184 40.8483 37.4531 42.466 38.1257C45.2971 39.2122 45.4319 39.3674 45.3645 41.4886C45.2971 42.989 45.4319 43.1959 45.6341 42.1095C45.7689 41.2299 46.2408 40.3504 46.5778 40.04C47.3867 39.4191 47.3867 38.074 46.5778 38.4879C46.2408 38.6431 44.623 38.3844 43.0727 37.867C41.4549 37.4014 40.5113 36.9358 40.9831 36.7806C41.9942 36.5219 40.7809 35.5389 38.8261 34.9698C37.6802 34.6076 37.6128 34.6594 38.5565 35.7458Z" fill="black"/>
<path d="M228.844 35.6423C227.698 36.2115 227.226 36.6771 227.698 36.6771C228.237 36.6771 228.372 36.9358 228.103 37.2979C227.833 37.6601 228.507 37.3497 229.586 36.5736C231.945 34.8146 231.473 34.2972 228.844 35.6423Z" fill="black"/>
<path d="M135.891 35.7458C136.093 36.0045 136.565 36.0562 136.902 35.901C137.778 35.4354 137.643 35.2802 136.498 35.2802C135.958 35.2802 135.689 35.4871 135.891 35.7458Z" fill="black"/>
<path d="M132.521 36.4184C131.914 37.7636 132.049 38.074 132.858 37.0392C133.262 36.5219 133.464 35.9528 133.262 35.8493C133.127 35.6941 132.79 35.9528 132.521 36.4184Z" fill="black"/>
<path d="M137.239 37.0393C136.835 37.7636 136.902 37.8153 137.576 37.3497C138.048 36.9875 138.25 36.5736 138.048 36.4184C137.846 36.2632 137.441 36.5219 137.239 37.0393Z" fill="black"/>
<path d="M43.6792 37.0392C44.151 37.1944 44.7577 37.1427 44.9599 36.9875C45.2295 36.8323 44.8251 36.6771 44.0836 36.7288C43.3421 36.7288 43.1399 36.884 43.6792 37.0392Z" fill="black"/>
<path d="M224.328 37.0392C224.8 37.1944 225.406 37.1427 225.609 36.9875C225.878 36.8323 225.474 36.6771 224.732 36.7288C223.991 36.7288 223.789 36.884 224.328 37.0392Z" fill="black"/>
<path d="M129.959 38.4879C129.555 40.04 129.757 40.7125 130.498 40.1952C130.701 39.9882 130.768 39.2122 130.633 38.3844L130.431 36.9357L129.959 38.4879Z" fill="black"/>
<path d="M60.0589 37.867C60.1937 37.9188 60.9351 38.3327 61.6766 38.7466C62.9573 39.4709 62.9573 39.4709 62.081 38.5914C61.6092 38.1257 60.8677 37.7118 60.4633 37.7118C60.0589 37.7118 59.924 37.7636 60.0589 37.867Z" fill="black"/>
<path d="M116.95 38.1774C119.174 38.3844 121.601 38.7465 122.342 39.0052C123.421 39.3674 123.555 39.3157 122.814 38.6948C122.342 38.2809 120.253 37.9705 117.421 37.9188L112.905 37.8153L116.95 38.1774Z" fill="black"/>
<path d="M49.8132 39.1087C48.9369 39.9365 49.0043 39.9882 50.0828 39.3157C50.6894 38.9535 51.2287 38.5396 51.2287 38.4361C51.2287 38.0222 50.6894 38.2809 49.8132 39.1087Z" fill="black"/>
<path d="M136.026 42.2647C136.295 46.4553 135.554 47.0244 134.745 43.2477C134.341 41.0747 134.273 41.1264 134.138 44.1789L133.936 47.2831L133.464 44.4376C133.195 42.6786 132.925 42.2129 132.858 43.1442L132.723 44.6963L131.644 42.8855C131.038 41.799 130.498 41.3334 130.296 41.7473C130.094 42.1612 130.296 42.7303 130.701 43.0407C131.105 43.3511 131.442 43.8168 131.442 44.1272C131.442 44.3859 130.431 43.8685 129.218 42.989C128.004 42.0577 126.791 41.4886 126.521 41.6438C126.252 41.8508 125.645 41.6956 125.039 41.3334C124.432 40.9712 123.825 40.816 123.623 40.9195C123.421 41.0747 124.297 41.6956 125.578 42.3164C128.207 43.5581 134.138 48.2661 134.138 49.0939C134.138 49.3526 134.475 49.6113 134.88 49.6113C135.217 49.6113 135.419 49.4043 135.217 49.1457C134.745 48.6283 140.609 43.765 143.912 41.9025C145.058 41.2817 145.26 41.023 144.452 41.2817C142.564 42.006 142.025 42.006 142.632 41.1782C142.901 40.8678 141.89 41.4369 140.407 42.5233C138.992 43.5581 137.576 44.2824 137.306 44.1272C137.037 43.9202 136.835 42.782 136.835 41.6438C136.835 40.4539 136.565 39.2639 136.295 38.9018C136.026 38.5913 135.891 40.0917 136.026 42.2647Z" fill="black"/>
<path d="M145.867 39.057C144.654 39.7813 144.654 39.833 146.137 39.2639C146.946 38.9535 147.62 38.5913 147.62 38.4879C147.62 38.074 147.283 38.1774 145.867 39.057Z" fill="black"/>
<path d="M205.184 39.8848L203.229 41.5921L205.454 40.0917C207.476 38.6431 207.948 38.2292 207.409 38.2292C207.274 38.2292 206.33 39.0052 205.184 39.8848Z" fill="black"/>
<path d="M221.766 38.4879C221.766 38.5396 222.238 39.3157 222.845 40.1952C223.452 41.1265 223.721 42.3681 223.452 42.989C223.114 44.0755 223.114 44.0755 223.789 43.2477C224.26 42.6786 224.395 41.5404 224.193 40.5574C223.856 39.1605 223.991 38.7983 224.934 38.5914C225.609 38.4879 225.137 38.3844 223.991 38.3844C222.777 38.3844 221.766 38.4361 221.766 38.4879Z" fill="black"/>
<path d="M102.929 39.4709C98.4131 40.7126 95.245 42.7303 90.9984 47.0244C88.7066 49.3526 86.0778 51.4221 85.1341 51.7325C82.8423 52.4051 78.5957 52.3016 77.652 51.5773C77.0454 51.1117 76.8431 51.1117 76.8431 51.5773C76.8431 52.3533 79.6068 52.8707 82.5053 52.612C83.786 52.5086 84.6623 52.612 84.5274 52.819C84.3252 53.0259 83.5838 53.2329 82.9097 53.2329C82.2356 53.2329 81.3594 53.6468 80.9549 54.1124C80.4831 54.8367 79.4046 55.0437 76.3039 55.0437H72.2595L73.5402 56.4406C74.2143 57.1649 74.821 58.3548 74.821 59.0791C74.821 61.2521 76.6409 62.1833 80.3483 61.9247C84.0556 61.6142 86.0104 60.476 90.1896 56.1301L92.6162 53.595L93.1554 55.0437C94.1665 57.9409 99.4916 61.0451 103.266 60.9417C104.277 60.8899 103.873 60.7347 102.188 60.4243C99.222 59.8552 96.0539 58.2513 94.9754 56.751C93.8295 55.0954 93.0206 52.6638 93.7621 52.9742C94.0991 53.1811 94.3688 53.595 94.3688 53.9054C94.3688 54.2676 95.1776 55.1989 96.1213 56.0784L97.8739 57.6305L96.4583 55.9749C95.6495 55.0954 94.8406 53.6468 94.6384 52.819C93.9643 50.1287 97.8065 45.8345 103.334 43.2477L105.154 42.3681V43.8168C105.154 45.1619 107.446 47.5418 108.794 47.5418C109.131 47.5418 108.524 47.0244 107.513 46.4036C105.963 45.4723 105.76 45.0067 106.03 43.5581C106.502 41.3851 105.895 41.3851 101.446 43.6616C97.4694 45.6793 95.9865 47.0762 91.8747 52.4568C86.617 59.2861 82.1682 62.1316 77.8542 61.3038C76.3039 60.9934 75.0906 59.3378 75.7646 58.4583C75.9669 58.2513 77.5172 57.734 79.2024 57.3718C80.8875 57.0097 82.4379 56.544 82.5727 56.3371C82.7749 56.0784 81.4268 56.2853 79.6068 56.6992C77.7868 57.1649 75.832 57.3718 75.2254 57.2166C73.001 56.544 74.2817 55.9749 78.3935 55.7162C80.7527 55.561 83.2467 55.1471 83.9882 54.785C84.6623 54.4228 86.9541 52.5086 88.9763 50.4908C94.908 44.6446 98.6153 42.0577 102.795 40.8678C104.884 40.2469 107.446 39.7813 108.524 39.7813C109.603 39.7813 110.681 39.5226 110.883 39.2639C111.49 38.4879 105.963 38.6431 102.929 39.4709Z" fill="black"/>
<path d="M113.512 39.2122C113.714 39.4191 115.197 39.7813 116.748 39.9365C118.365 40.04 120.185 40.3504 120.859 40.5574C121.466 40.7643 122.005 40.7126 122.005 40.4021C122.005 40.0917 120.455 39.6261 118.635 39.3157C114.456 38.6431 113.04 38.5914 113.512 39.2122Z" fill="black"/>
<path d="M152.675 39.2639C152.136 39.9365 154.36 39.9365 155.708 39.2639C156.517 38.85 156.315 38.7465 154.899 38.7465C153.888 38.7465 152.877 38.9535 152.675 39.2639Z" fill="black"/>
<path d="M157.326 39.2122C157.596 39.5226 158.742 39.7813 159.888 39.7813C166.426 39.7813 171.347 42.2129 178.896 49.3009C185.165 55.1471 186.58 55.8197 192.377 55.8197C195.545 55.8197 195.68 55.8714 194.669 56.6475C193.725 57.3718 193.119 57.4236 190.692 56.9579C186.85 56.1819 186.513 56.544 190.22 57.4753C192.512 58.0961 193.119 58.4583 193.119 59.4413C193.119 61.0969 191.501 61.7177 188.333 61.3038C185.097 60.8382 181.458 57.9927 177.615 52.9742C173.773 47.904 171.616 45.7828 169.055 44.3859C167.235 43.4029 167.437 43.7133 170.268 46.0415C172.155 47.5936 173.975 49.4043 174.245 50.0769C174.987 51.8877 174.043 54.578 172.021 56.4406C170.538 57.8892 170.47 57.9927 171.818 57.1131C172.695 56.544 173.908 55.2506 174.649 54.2676C176.065 52.1464 176.335 53.0259 174.987 55.4576C173.706 57.8374 171.077 59.493 167.37 60.2691C164.741 60.7864 164.539 60.9417 166.089 60.9417C169.324 60.9934 173.571 58.717 175.256 56.0784L176.739 53.7502L179.705 56.8544C183.277 60.5795 186.109 62.0281 189.816 62.0281C192.984 62.0281 194.265 61.2003 194.4 58.9757C194.467 58.1996 194.804 57.2166 195.208 56.8027C196.826 55.1989 196.624 55.0437 192.714 55.0437C189.883 55.0437 188.535 54.8367 187.929 54.1641C187.457 53.6985 186.446 53.2329 185.704 53.1294C184.963 53.0259 184.423 52.6638 184.491 52.3533C184.626 51.9912 184.086 51.5773 183.345 51.4221C182.671 51.2669 180.918 49.9217 179.57 48.4213C173.436 41.8508 168.583 39.3157 161.168 38.85C158 38.6431 156.989 38.7466 157.326 39.2122Z" fill="black"/>
<path d="M50.9591 40.3504C49.7458 41.0747 49.2065 41.9025 49.2065 43.0407C49.2065 44.3341 49.0043 44.5411 48.4651 43.9202C47.8584 43.2477 47.791 43.2477 48.0606 43.9202C48.1954 44.3341 48.5999 44.6963 48.9369 44.6963C50.1502 44.6963 51.2287 45.5758 50.8243 46.0932C50.4873 46.5071 50.7569 46.5588 51.4984 46.3519C52.1724 46.1449 52.9139 45.9897 53.2509 45.9897C53.5205 45.9897 53.925 45.6793 54.1272 45.2654C54.3968 44.748 54.1272 44.6446 53.1161 44.8515C51.4309 45.1619 49.8132 43.7133 50.3524 42.4716C52.442 37.867 62.553 41.023 64.71 46.921C65.047 47.9557 65.7211 49.1974 66.1255 49.6113C66.7321 50.2321 66.7996 50.1804 66.3951 49.3526C66.1255 48.7835 65.5188 47.3349 65.047 46.0932C63.7663 42.9372 62.3507 41.4886 59.3175 40.2987C55.9472 38.9535 53.2509 39.0052 50.9591 40.3504Z" fill="black"/>
<path d="M64.0358 40.2987C64.4402 40.8678 64.9121 41.3334 65.1143 41.3334C65.2491 41.3334 65.1143 40.8678 64.7099 40.2987C64.3054 39.7295 63.8336 39.2639 63.6314 39.2639C63.4966 39.2639 63.6314 39.7295 64.0358 40.2987Z" fill="black"/>
<path d="M147.822 39.7813C146.946 40.04 146.271 40.4021 146.271 40.6091C146.271 41.023 149.844 40.3504 150.653 39.7296C151.462 39.1087 149.844 39.1604 147.822 39.7813Z" fill="black"/>
<path d="M209.768 40.2987C207.409 41.1264 206.6 41.799 205.252 44.0237C204.308 45.5241 203.567 47.1279 203.567 47.5418C203.567 47.9557 204.308 47.1279 205.184 45.6793C207.004 42.6268 209.498 40.9712 212.869 40.5056C217.048 39.8848 220.486 42.2647 218.329 44.2307C217.857 44.6963 216.778 44.955 215.902 44.7998C213.947 44.5411 213.947 44.748 215.969 45.731C217.52 46.5071 217.722 46.4553 219.475 45.1619C220.553 44.3859 221.025 43.9202 220.62 44.1272C220.014 44.3859 219.744 44.0754 219.744 43.0407C219.744 41.2817 219.205 40.6608 217.25 39.833C215.161 39.0052 213.071 39.1604 209.768 40.2987Z" fill="black"/>
<path d="M48.1955 40.8678C47.9259 41.1782 47.8585 41.4886 48.0607 41.6438C48.1955 41.799 48.5325 41.5403 48.7348 41.0747C49.2066 40.1952 48.8022 40.04 48.1955 40.8678Z" fill="black"/>
<path d="M182.671 41.023C182.671 41.4369 182.94 41.9025 183.277 42.0577C183.614 42.2647 183.749 41.9025 183.547 41.3334C183.142 40.1435 182.671 39.9882 182.671 41.023Z" fill="black"/>
<path d="M115.804 41.1782C116.276 41.3334 116.882 41.2816 117.085 41.1264C117.354 40.9712 116.95 40.816 116.208 40.8678C115.467 40.8678 115.265 41.023 115.804 41.1782Z" fill="black"/>
<path d="M82.2356 41.7473C82.2356 42.8338 84.2578 43.0924 85.4711 42.1094C86.5496 41.2817 86.5496 41.2817 85.0667 41.9025C83.7859 42.5233 83.4489 42.5233 82.9097 41.8508C82.4378 41.3334 82.2356 41.2817 82.2356 41.7473Z" fill="black"/>
<path d="M107.715 41.6955C108.187 41.8508 108.794 41.799 108.996 41.6438C109.265 41.4886 108.861 41.3334 108.12 41.3851C107.378 41.3851 107.176 41.5403 107.715 41.6955Z" fill="black"/>
<path d="M160.292 41.6955C160.764 41.8508 161.37 41.799 161.573 41.6438C161.842 41.4886 161.438 41.3334 160.696 41.3851C159.955 41.3851 159.753 41.5403 160.292 41.6955Z" fill="black"/>
<path d="M65.384 42.3164C65.384 42.6268 65.6537 42.989 66.0581 43.1442C66.4625 43.2994 66.5299 43.0924 66.3277 42.6786C65.8559 41.7473 65.384 41.5921 65.384 42.3164Z" fill="black"/>
<path d="M163.056 42.989C163.73 44.4893 162.786 46.2484 160.831 46.921C159.685 47.3866 159.618 47.4901 160.629 47.4901C162.112 47.5418 164.606 44.4893 164.067 43.2477C163.73 42.3681 163.864 42.3681 165.28 42.8855C166.763 43.4546 166.763 43.4029 165.55 42.6786C163.527 41.4369 162.381 41.5921 163.056 42.989Z" fill="black"/>
<path d="M202.623 43.1442C202.016 44.4893 202.151 44.7998 202.96 43.765C203.365 43.2477 203.567 42.6786 203.365 42.5751C203.23 42.4199 202.893 42.6786 202.623 43.1442Z" fill="black"/>
<path d="M116.478 43.2477C114.523 43.5063 110.546 45.9897 110.546 47.0244C110.546 47.3349 111.49 46.921 112.568 46.0414C115.467 43.8685 120.455 43.3511 125.713 44.6963C126.589 44.9032 126.454 44.748 125.376 44.2824C123.421 43.4029 119.174 42.9372 116.478 43.2477Z" fill="black"/>
<path d="M146.946 43.3511C145.665 43.5581 143.98 44.0237 143.238 44.3859L141.89 45.0585L143.238 44.6446C146.002 43.9202 151.664 43.8168 153.686 44.4376C154.832 44.7998 156.382 45.6793 157.057 46.4036C157.798 47.1279 158.607 47.5936 158.809 47.4383C159.281 47.0245 155.843 44.0237 154.495 43.7133C151.799 43.1442 149.17 43.0407 146.946 43.3511Z" fill="black"/>
<path d="M158.944 43.5063C159.55 44.1272 159.618 44.3859 159.011 44.5411C158.539 44.6446 158.674 45.0067 159.483 45.4723C160.359 46.0415 160.561 46.0932 160.157 45.5241C159.82 45.1619 159.887 44.6963 160.292 44.4893C160.764 44.2824 160.494 43.8685 159.55 43.4546C158.202 42.782 158.135 42.782 158.944 43.5063Z" fill="black"/>
<path d="M196.961 43.9202C196.961 44.6446 197.096 44.9032 197.298 44.5411C197.433 44.2307 197.433 43.6098 197.298 43.2477C197.096 42.9372 196.961 43.1959 196.961 43.9202Z" fill="black"/>
<path d="M109.805 44.7998C108.928 45.6275 108.996 45.6793 110.074 45.0067C111.153 44.3341 111.49 43.9202 110.951 43.9202C110.816 43.9202 110.276 44.3341 109.805 44.7998Z" fill="black"/>
<path d="M66.7322 45.2137C66.7322 45.4724 67.0692 46.0932 67.4062 46.5071C67.7433 46.921 68.0803 47.0245 68.0803 46.7658C68.0803 46.4554 67.7433 45.8863 67.4062 45.4724C67.0692 45.0585 66.7322 44.9033 66.7322 45.2137Z" fill="black"/>
<path d="M127.87 45.5241C128.341 45.8862 128.881 46.0414 129.083 45.8862C129.285 45.731 128.948 45.4206 128.274 45.2654C127.33 44.955 127.263 45.0067 127.87 45.5241Z" fill="black"/>
<path d="M72.5964 46.921C72.6638 47.3349 72.7986 47.7488 72.7986 47.8522C72.7986 48.0075 73.1356 47.9557 73.5401 47.7488C74.0119 47.5418 74.2141 47.697 74.0119 48.1109C73.8097 48.5248 73.2705 48.7835 72.866 48.68C71.7875 48.5248 73.9445 51.0082 75.2252 51.3704C76.1015 51.629 76.1015 51.5256 75.1578 50.5426C74.0119 49.2491 73.8097 48.3696 74.7534 48.7835C75.0904 48.9905 75.023 48.4214 74.6186 47.5418C74.2141 46.6623 73.6749 46.2484 73.4053 46.5588C73.1356 46.8692 72.7986 46.921 72.6638 46.714C72.4616 46.4554 72.4616 46.5588 72.5964 46.921Z" fill="black"/>
<path d="M169.257 47.697C169.392 47.7488 170.133 48.1627 170.875 48.5766C172.155 49.3009 172.155 49.3009 171.279 48.4213C170.807 47.9557 170.066 47.5418 169.661 47.5418C169.257 47.5418 169.122 47.5936 169.257 47.697Z" fill="black"/>
<path d="M97.402 48.6283C97.1324 48.9387 97.065 49.2491 97.2672 49.4043C97.402 49.5596 97.7391 49.3009 97.9413 48.8352C98.4131 47.9557 98.0087 47.8005 97.402 48.6283Z" fill="black"/>
<path d="M108.794 49.0939C112.366 49.6113 114.186 51.3186 113.58 53.595C113.31 54.6298 113.445 55.3024 113.917 55.3024C114.254 55.3024 114.591 55.7162 114.591 56.1819C114.591 56.6992 115.063 57.5788 115.602 58.0961C116.95 59.493 116.882 58.7687 115.4 56.3888C114.658 55.2506 114.254 53.7502 114.388 52.8707C114.793 50.853 111.49 48.5248 108.322 48.6283C106.3 48.68 106.3 48.7318 108.794 49.0939Z" fill="black"/>
<path d="M156.787 49.663C155.843 50.2321 155.034 50.9047 155.034 51.1634C155.034 51.4221 155.843 51.0599 156.854 50.3356C158.742 48.9904 161.303 48.8352 164.808 49.8182C165.684 50.0769 165.55 49.9217 164.471 49.4043C162.112 48.2661 158.876 48.3696 156.787 49.663Z" fill="black"/>
<path d="M168.92 49.4561C168.515 50.1804 168.583 50.2321 169.257 49.7665C169.729 49.4044 169.931 48.9905 169.729 48.8353C169.527 48.68 169.122 48.9387 168.92 49.4561Z" fill="black"/>
<path d="M202.556 49.5078C202.353 50.0769 201.41 51.4738 200.399 52.5085C199.455 53.6468 199.185 54.1641 199.859 53.7502C201.14 52.9224 203.836 49.0939 203.364 48.7318C203.162 48.6283 202.825 48.9387 202.556 49.5078Z" fill="black"/>
<path d="M104.143 49.6113C103.94 49.9217 104.21 49.9734 104.749 49.8182C105.963 49.4561 106.165 49.0939 105.221 49.0939C104.817 49.0939 104.345 49.3009 104.143 49.6113Z" fill="black"/>
<path d="M66.7322 51.0082C66.7322 51.3186 67.2714 51.8877 67.9455 52.2499C69.024 52.9225 69.024 52.9225 68.0803 51.9395C67.5411 51.3704 67.0018 50.8012 66.9344 50.6978C66.7996 50.5943 66.7322 50.6978 66.7322 51.0082Z" fill="black"/>
<path d="M191.434 51.4221C190.962 51.836 189.344 52.2499 187.794 52.2499C185.637 52.3533 185.435 52.4051 186.985 52.5603C189.546 52.8707 191.906 52.4051 192.377 51.4221C192.849 50.4391 192.512 50.4391 191.434 51.4221Z" fill="black"/>
<path d="M171.279 52.0429C171.212 53.3363 170.47 53.4916 168.381 52.6638C166.224 51.7842 165.01 53.0777 167.032 54.1124C168.785 55.0437 168.987 56.1819 167.37 56.4923C166.224 56.6992 166.224 56.751 167.37 56.8027C169.324 56.9062 169.594 55.2506 167.841 54.1641C165.887 52.9742 166.426 52.4568 168.785 53.2846C170.875 54.0607 172.223 53.3881 171.683 51.8877C171.414 51.0599 171.346 51.1117 171.279 52.0429Z" fill="black"/>
<path d="M126.724 52.2499C126.724 52.4568 127.061 52.7155 127.398 52.819C127.802 52.9224 127.735 53.802 127.128 55.3023C126.589 56.5958 126.184 57.3201 126.117 56.9579C126.05 56.6475 125.78 56.3371 125.375 56.3371C124.499 56.3371 124.499 57.734 125.443 57.9927C126.724 58.3031 125.308 60.0621 123.96 59.8034C123.218 59.6482 122.679 59.7517 122.679 60.0104C122.679 60.5278 123.69 60.5795 125.915 60.1656C126.724 59.9587 127.398 59.493 127.398 59.1309C127.398 58.717 127.667 58.4065 128.004 58.4065C128.341 58.4065 129.083 58.0444 129.689 57.6305C130.566 56.9579 130.701 57.0097 131.105 58.3548C131.577 60.0104 133.195 60.5795 136.16 60.1656C137.576 59.9069 137.913 59.5965 137.711 58.7687C137.576 58.1479 137.711 57.0614 138.048 56.3888C138.587 55.1471 138.654 55.1989 139.531 56.8544L140.474 58.5618L141.62 56.544L142.834 54.5263V57.2166C142.901 59.3378 143.171 59.9587 143.98 59.9587C144.788 59.9587 144.923 59.5965 144.654 58.51C144.451 57.734 144.182 56.0267 144.114 54.6298C143.98 51.5773 142.766 51.4221 141.62 54.3193L140.744 56.4923L139.8 55.0437C139.261 54.2676 138.857 53.1811 138.857 52.612C138.857 51.7325 138.587 51.629 137.037 51.9394C135.958 52.1464 134.745 52.5085 134.34 52.819C133.127 53.595 133.262 54.785 134.543 54.785C135.217 54.785 135.486 54.4745 135.217 54.0089C135.015 53.595 135.419 53.0259 136.16 52.7155C137.846 51.9912 138.52 52.0429 137.643 52.819C137.306 53.1811 136.834 54.7332 136.7 56.2336C136.295 59.2861 135.621 60.1656 133.936 59.6482C132.79 59.3378 130.498 54.0607 131.038 52.9742C131.24 52.5085 130.566 52.2499 129.015 52.0947C127.735 51.9912 126.724 52.0429 126.724 52.2499ZM129.352 56.6992C128.476 57.9409 127.398 58.3031 127.398 57.3718C127.398 57.0614 127.869 56.6992 128.476 56.4923C129.15 56.3371 129.285 56.0784 128.813 55.8714C128.409 55.6645 128.341 54.9919 128.544 54.2676L128.948 53.0259L129.555 54.2676C129.959 55.0954 129.892 55.9232 129.352 56.6992Z" fill="black"/>
<path d="M99.424 52.9742C98.3455 53.3881 97.8063 53.6985 98.2781 53.7503C98.75 53.7503 99.7611 53.4916 100.57 53.1811C102.39 52.4568 102.997 53.0777 101.379 54.0089C100.166 54.6815 100.166 54.7333 101.648 54.4228C102.525 54.2676 103.131 53.7503 103.131 53.1811C103.131 52.0429 102.255 51.9912 99.424 52.9742Z" fill="black"/>
<path d="M154.562 53.8537C154.63 55.1471 154.899 55.6128 155.506 55.4576C156.584 55.1471 156.584 54.8367 155.439 53.2329C154.495 51.9912 154.495 51.9912 154.562 53.8537Z" fill="black"/>
<path d="M106.839 53.2329C106.637 53.5433 106.906 53.595 107.513 53.4398C108.052 53.2329 108.996 53.3881 109.535 53.7502C110.142 54.1124 110.546 54.1641 110.546 53.8537C110.546 52.8707 107.513 52.3533 106.839 53.2329Z" fill="black"/>
<path d="M158.809 53.8537C158.202 54.4745 157.73 55.3023 157.73 55.6128C157.73 56.3371 160.899 58.4065 162.044 58.4065C162.449 58.4065 161.775 57.9409 160.629 57.3718C158.202 56.2853 157.933 55.5093 159.348 54.0089C160.494 52.819 162.786 53.3363 162.112 54.6815C161.775 55.3541 161.842 55.4058 162.516 54.9402C163.19 54.4228 163.123 54.1641 162.449 53.4915C161.236 52.4051 160.022 52.5085 158.809 53.8537Z" fill="black"/>
<path d="M19.8174 54.4745C17.3907 55.3541 15.5034 56.5958 13.3464 58.717C8.76275 63.2698 6.67316 64.5632 3.30285 65.0806C0.6066 65.4945 0.539194 65.5462 2.56138 65.598C5.93169 65.7014 7.95387 64.615 13.616 59.8552C17.93 56.1819 19.3455 55.3541 22.244 54.6298C28.5802 53.0777 35.3882 53.8537 40.5111 56.8027L43.4769 58.51L40.7807 56.6475C35.523 53.0777 26.4232 52.0947 19.8174 54.4745Z" fill="black"/>
<path d="M68.7544 53.4916C68.7544 53.595 69.4285 54.0089 70.3047 54.3193C71.6529 54.8885 71.7203 54.8885 70.844 54.1124C69.9677 53.2846 68.7544 52.9225 68.7544 53.4916Z" fill="black"/>
<path d="M77.3823 53.595C77.8541 53.7502 78.4608 53.6985 78.663 53.5433C78.9326 53.3881 78.5282 53.2329 77.7867 53.2846C77.0453 53.2846 76.8431 53.4398 77.3823 53.595Z" fill="black"/>
<path d="M179.3 53.9572C179.3 54.0607 179.84 54.4745 180.514 54.8367C181.525 55.5093 181.592 55.4575 180.716 54.6298C179.84 53.802 179.3 53.5433 179.3 53.9572Z" fill="black"/>
<path d="M182.536 55.0954C183.884 56.6475 190.49 59.8035 191.231 59.2861C191.434 59.1309 190.422 58.6135 189.007 58.1479C187.524 57.6823 185.165 56.4406 183.749 55.4058C181.255 53.595 181.188 53.595 182.536 55.0954Z" fill="black"/>
<path d="M28.041 55.2506C27.8388 55.4576 28.4454 55.561 29.3217 55.4058C30.2654 55.3023 31.0069 55.0954 31.0069 54.9919C31.0069 54.578 28.378 54.785 28.041 55.2506Z" fill="black"/>
<path d="M85.6059 55.561C85.1341 55.9749 83.1119 56.9062 81.1571 57.6822C79.1349 58.4583 77.5846 59.1826 77.7868 59.2861C78.2586 59.6482 84.7296 56.8544 86.0104 55.768C86.6844 55.1989 87.0214 54.785 86.8192 54.785C86.617 54.785 86.0778 55.1471 85.6059 55.561Z" fill="black"/>
<path d="M106.299 55.5093C105.828 56.3888 101.918 56.4923 100.57 55.6645C99.9632 55.3023 99.8284 55.3541 100.165 55.9749C100.637 57.0097 105.491 57.0614 106.569 56.0267C107.041 55.6128 107.243 55.1471 107.041 54.9919C106.839 54.8367 106.502 55.0954 106.299 55.5093Z" fill="black"/>
<path d="M110.614 55.4058C110.546 55.8714 109.737 56.751 108.726 57.3201C107.648 57.8892 107.176 58.4065 107.58 58.4065C108.726 58.4065 111.422 55.9749 111.018 55.1989C110.748 54.7332 110.614 54.785 110.614 55.4058Z" fill="black"/>
<path d="M22.9181 55.8197C22.0418 56.2336 22.1093 56.3371 23.1203 56.3371C23.727 56.3371 24.2663 56.0784 24.2663 55.8197C24.2663 55.1989 24.1988 55.1989 22.9181 55.8197Z" fill="black"/>
<path d="M85.9429 56.8544C84.9318 57.6822 82.7748 58.8722 81.2918 59.4413C79.7415 60.0104 78.9326 60.476 79.4045 60.476C80.9548 60.476 83.8533 59.0791 86.2125 57.1649C87.4932 56.1301 88.4369 55.3023 88.2347 55.3023C88.0325 55.3023 87.0214 55.9749 85.9429 56.8544Z" fill="black"/>
<path d="M163.393 56.4406C164.067 56.751 164.876 56.751 165.145 56.544C165.482 56.2853 164.943 56.0267 163.932 55.9749C162.449 55.9232 162.314 55.9749 163.393 56.4406Z" fill="black"/>
<path d="M183.008 57.3201C185.434 59.3378 188.4 60.6312 189.951 60.3208C190.894 60.1139 190.894 60.0621 189.816 60.0104C189.074 60.0104 186.85 58.9757 184.76 57.7857C181.255 55.8197 181.12 55.768 183.008 57.3201Z" fill="black"/>
<path d="M232.484 56.544C229.855 57.2683 226.552 58.9239 225.137 60.2173C224.665 60.6312 223.249 60.9934 221.834 60.9934C218.935 60.9934 216.374 62.1833 216.374 63.632C216.374 64.615 215.16 64.615 134.812 64.615C62.7551 64.615 53.2508 64.5115 53.2508 63.8389C53.2508 62.3903 50.6894 60.9934 47.9931 60.9934C44.6228 60.9934 42.4658 62.649 42.4658 65.2358C42.4658 67.4605 44.8924 69.2713 47.8583 69.2713C49.9479 69.2713 53.2508 67.5122 53.2508 66.374C53.2508 65.7532 64.575 65.6497 134.812 65.6497C202.084 65.6497 216.374 65.7532 216.374 66.3223C216.374 67.6157 219.407 69.2713 221.699 69.2713C226.282 69.2713 228.709 65.2358 225.811 62.3903L224.463 61.0969L227.091 59.493C230.664 57.3201 234.573 56.3371 239.562 56.3371C245.763 56.3371 249.672 57.9409 254.458 62.5455C258.57 66.374 262.21 68.2883 265.378 68.1848C266.996 68.1331 266.928 68.0813 264.771 67.7709C261.603 67.2536 259.379 66.1153 257.02 63.7872C250.346 57.0614 247.718 55.8197 239.966 55.8715C237.202 55.8715 233.832 56.1819 232.484 56.544Z" fill="black"/>
<path d="M28.5129 58.1479C27.1648 59.1309 26.4233 59.9587 26.8278 59.9587C27.2322 59.9587 27.9063 59.493 28.3107 58.9757C29.187 57.6305 33.2313 56.6992 36.2646 57.0614C38.0846 57.2683 38.3542 57.2166 37.4105 56.8544C36.6691 56.5958 34.9165 56.3888 33.501 56.3888C31.4788 56.3371 30.4677 56.6992 28.5129 58.1479Z" fill="black"/>
<path d="M153.282 57.5788C153.079 57.9927 153.012 58.7687 153.147 59.2861C153.349 59.8552 153.551 59.5965 153.753 58.51C154.158 56.751 153.888 56.3371 153.282 57.5788Z" fill="black"/>
<path d="M17.2561 58.9757C14.425 61.5625 13.3465 63.4768 14.088 64.5115C14.6272 65.1841 14.762 65.2358 14.8294 64.615C14.8294 63.9424 14.8968 63.9424 15.5035 64.615C15.9753 65.1841 16.0428 64.9254 15.7731 63.7872C15.3687 62.0281 16.1776 60.4243 18.402 58.51C19.1434 57.8892 19.6153 57.3718 19.4131 57.3718C19.1434 57.3718 18.1997 58.0961 17.2561 58.9757Z" fill="black"/>
<path d="M23.5923 58.0961C23.5923 58.1996 24.1315 58.6135 24.8056 58.9757C25.8167 59.6482 25.8841 59.5965 25.0078 58.7687C24.1315 57.9409 23.5923 57.6822 23.5923 58.0961Z" fill="black"/>
<path d="M243.673 59.3896C243.673 60.2173 243.876 60.7864 244.213 60.6312C244.482 60.5278 244.684 59.8552 244.684 59.1309C244.684 58.4583 244.482 57.8892 244.213 57.8892C243.876 57.8892 243.673 58.5618 243.673 59.3896Z" fill="black"/>
<path d="M101.649 58.7687C102.457 58.8722 103.806 58.8722 104.682 58.7687C105.491 58.6652 104.817 58.5618 103.131 58.5618C101.446 58.5618 100.772 58.6652 101.649 58.7687Z" fill="black"/>
<path d="M110.209 59.493C109.131 60.0104 107.445 60.5278 106.502 60.5278C104.951 60.6312 104.884 60.6312 106.3 60.8382C107.176 60.9417 109.063 60.5278 110.546 59.9069C112.973 58.8205 113.512 58.7687 114.793 59.3896C116.141 60.0621 116.208 60.0621 115.332 59.2861C114.186 58.1479 112.771 58.2514 110.209 59.493Z" fill="black"/>
<path d="M156.382 58.5618C156.382 59.1826 161.033 60.9934 162.516 60.9417C163.932 60.8899 163.864 60.8382 162.112 60.5278C160.966 60.3208 159.213 59.7 158.202 59.2343C157.191 58.717 156.382 58.4066 156.382 58.5618Z" fill="black"/>
<path d="M165.01 58.7687C165.819 58.8722 167.033 58.8722 167.707 58.7687C168.313 58.6135 167.639 58.51 166.156 58.5618C164.673 58.5618 164.134 58.6652 165.01 58.7687Z" fill="black"/>
<path d="M248.661 60.8382C251.425 62.9077 252.099 63.7355 252.167 65.1841C252.167 66.1671 252.369 66.6327 252.571 66.2706C252.773 65.9084 253.986 66.7879 255.604 68.4952C257.02 70.0473 259.109 71.7029 260.188 72.1168C263.895 73.6172 266.928 72.8411 266.928 70.513C266.928 69.8404 267.266 69.1678 267.603 69.0126C268.007 68.8574 268.277 68.3918 268.277 68.0813C268.277 67.7192 267.94 67.8744 267.535 68.3918C266.928 69.1678 266.254 69.323 264.3 69.0643L261.873 68.8057L264.097 69.3748C265.446 69.7369 266.254 70.2543 266.254 70.8751C266.254 72.0651 263.76 72.6342 261.401 71.9099C259.514 71.3925 255.604 67.9261 253.852 65.2358C252.504 63.2181 248.392 59.5965 246.572 58.8722C245.83 58.5618 246.774 59.493 248.661 60.8382Z" fill="black"/>
<path d="M234.102 59.3896C236.528 59.6482 237.876 60.1656 239.359 61.4073C240.505 62.3386 241.044 63.0629 240.573 63.0629C240.101 63.0629 239.899 63.1663 240.101 63.3216C240.303 63.4768 240.91 63.4768 241.449 63.3216C242.258 63.0629 242.123 62.7525 240.707 61.5625C238.281 59.5448 236.393 58.9239 233.428 58.9757C231.001 59.0791 231.001 59.0791 234.102 59.3896Z" fill="black"/>
<path d="M240.842 59.7C240.842 60.1139 241.112 60.3208 241.449 60.1656C241.786 60.0104 241.853 59.6482 241.651 59.3895C241.045 58.717 240.842 58.8204 240.842 59.7Z" fill="black"/>
<path d="M23.2551 60.9934C23.0529 61.3038 23.3225 61.3555 23.8618 61.2003C25.0751 60.8382 25.2773 60.476 24.3336 60.476C23.9292 60.476 23.4573 60.683 23.2551 60.9934Z" fill="black"/>
<path d="M28.9172 61.6142C29.389 62.1316 29.6586 63.1146 29.5238 63.8389C29.3216 64.5632 29.389 65.2358 29.5912 65.391C29.8608 65.4945 30.1305 64.8219 30.1979 63.8907C30.3327 62.7525 29.9283 61.9247 29.1868 61.459C28.1083 60.7865 28.0409 60.8382 28.9172 61.6142Z" fill="black"/>
<path d="M20.7611 63.425C21.1655 63.5285 21.3677 63.9424 21.1655 64.2011C20.8959 64.5632 21.0307 64.615 21.5026 64.408C22.3788 63.9424 21.8396 63.0629 20.6937 63.1146C20.087 63.1146 20.1544 63.2181 20.7611 63.425Z" fill="black"/>
<path d="M24.3335 64.408C24.3335 64.9771 24.5358 65.1323 24.738 64.7184C24.9402 64.3563 24.8728 63.8907 24.6706 63.7354C24.4683 63.5285 24.2661 63.8389 24.3335 64.408Z" fill="black"/>
<path d="M11.5938 65.6497C10.6501 66.581 9.70645 67.0466 9.09979 66.8914C8.56054 66.6844 8.29092 66.374 8.49313 66.1153C8.69535 65.8567 9.09979 65.7532 9.36941 65.8567C9.63904 66.0119 9.90866 65.8049 9.90866 65.391C9.90866 64.7184 9.70645 64.7702 8.69535 65.4428C8.02129 65.9084 7.54945 66.5292 7.61685 66.8397C7.68426 67.1501 6.67317 67.8227 5.39245 68.34C4.11173 68.8574 3.43767 69.2713 3.97692 69.2713C4.44876 69.2713 5.9317 68.8057 7.14501 68.1848C8.42573 67.6157 9.43682 67.357 9.43682 67.6674C9.43682 68.4435 5.79689 69.7887 3.84211 69.7887C2.89842 69.7887 1.95473 69.4265 1.75252 68.9609C1.14586 67.7709 1.21327 67.7192 2.83102 67.2535C4.24654 66.8397 4.17914 66.8397 2.29177 66.581C0.404393 66.374 0.26958 66.4775 0.539205 67.6674C1.01105 69.6852 1.95473 70.306 4.38136 70.306C6.80798 70.306 9.77385 68.7022 12.2005 66.1153C14.0878 64.0976 13.4812 63.632 11.5938 65.6497Z" fill="black"/>
<path d="M19.5479 65.3393C19.5479 65.7532 19.8175 66.2188 20.1545 66.374C20.4915 66.581 20.6264 66.2188 20.4241 65.6497C20.0197 64.4598 19.5479 64.3046 19.5479 65.3393Z" fill="black"/>
<path d="M237.337 65.6497C237.337 66.0636 237.607 66.7879 237.944 67.2018C238.753 68.1331 238.753 67.3053 237.944 65.9084C237.539 65.2358 237.337 65.1324 237.337 65.6497Z" fill="black"/>
<path d="M5.39256 66.1671C4.51628 66.6327 4.51628 66.6845 5.39256 66.6845C6.26884 66.6845 6.26884 66.7362 5.39256 67.2536C4.58369 67.6675 4.58369 67.7709 5.32516 67.6157C5.86441 67.5123 6.33625 66.9949 6.47106 66.5293C6.67328 65.4945 6.67328 65.5463 5.39256 66.1671Z" fill="black"/>
<path d="M14.8293 66.1153C14.8293 66.581 18.1322 69.0126 18.4019 68.7022C18.4693 68.5987 17.7278 67.8744 16.7167 67.0983C15.7056 66.3223 14.8293 65.9084 14.8293 66.1153Z" fill="black"/>
<path d="M241.045 66.0636C240.91 66.2706 241.314 66.4775 241.988 66.4775C242.662 66.4775 243.067 66.2706 242.932 66.0636C242.73 65.8567 242.325 65.6497 241.988 65.6497C241.651 65.6497 241.247 65.8567 241.045 66.0636Z" fill="black"/>
<path d="M247.92 66.2705C248.257 66.5292 248.999 66.6844 249.47 66.581C250.01 66.4258 249.673 66.2188 248.796 66.0119C247.65 65.8049 247.381 65.8567 247.92 66.2705Z" fill="black"/>
<path d="M30.8721 67.564C31.2092 68.6504 31.344 68.7539 31.5462 68.0296C31.681 67.5122 31.5462 66.8914 31.1418 66.581C30.7373 66.2705 30.6699 66.581 30.8721 67.564Z" fill="black"/>
<path d="M251.088 67.7709C250.818 68.0813 250.751 68.3918 250.953 68.547C251.088 68.7022 251.425 68.4435 251.627 67.9779C252.099 67.0983 251.695 66.9431 251.088 67.7709Z" fill="black"/>
<path d="M251.56 69.1678L250.01 71.0821L251.762 69.6334C252.706 68.8574 253.447 67.9779 253.447 67.6674C253.447 66.9431 253.245 67.0983 251.56 69.1678Z" fill="black"/>
<path d="M21.4353 68.0813C21.9071 68.2366 22.5138 68.1848 22.716 68.0296C22.9856 67.8744 22.5812 67.7192 21.8397 67.7709C21.0982 67.7709 20.896 67.9261 21.4353 68.0813Z" fill="black"/>
<path d="M243.876 68.5987C244.28 68.7022 245.089 68.7022 245.561 68.5987C245.965 68.4435 245.628 68.34 244.684 68.34C243.741 68.34 243.404 68.4435 243.876 68.5987Z" fill="black"/>
<path d="M258.637 69.4265C259.851 70.4095 263.019 71.8581 264.03 71.8581C264.3 71.8581 263.356 71.289 261.873 70.6164C260.39 69.9956 259.244 69.2196 259.311 68.9091C259.379 68.6504 258.974 68.3918 258.435 68.3918C257.694 68.3918 257.694 68.5987 258.637 69.4265Z" fill="black"/>
<path d="M260.525 68.7022C260.323 68.9609 260.39 69.323 260.727 69.4782C261.064 69.6334 261.334 69.4265 261.334 69.0126C261.334 68.1331 261.132 68.0296 260.525 68.7022Z" fill="black"/>
<path d="M22.4462 69.6334C23.0529 69.7369 23.9966 69.7369 24.4684 69.6334C24.8729 69.4782 24.401 69.3747 23.2551 69.3747C22.1766 69.3747 21.7722 69.4782 22.4462 69.6334Z" fill="black"/>
<path d="M262.884 70.306C263.423 70.5647 264.232 70.8234 264.569 70.8234C264.974 70.8234 264.771 70.5647 264.232 70.306C263.693 70.0473 262.951 69.7887 262.547 69.7887C262.21 69.7887 262.345 70.0473 262.884 70.306Z" fill="black"/>
<path d="M78.5957 79.4634C77.9216 81.6881 77.0453 83.9128 76.7083 84.3784C76.2364 85.1028 76.3712 85.3097 77.5172 85.3097C78.5282 85.3097 78.8653 84.9476 78.8653 84.0163C78.8653 82.9298 79.2023 82.7229 80.8875 82.7229C82.5726 82.7229 82.9096 82.9298 82.9096 84.0163C82.9096 85.051 83.2467 85.3097 84.6622 85.3097C85.6733 85.3097 86.2126 85.1028 85.9429 84.7406C85.6733 84.4302 84.797 82.309 83.9881 79.9808C82.8422 76.5144 82.303 75.6867 81.1571 75.5832C79.9438 75.428 79.6742 75.9453 78.5957 79.4634ZM81.5615 78.6874C81.5615 79.0496 81.7637 79.8773 81.966 80.4982C82.303 81.4812 82.1008 81.6881 80.8875 81.6881C79.6742 81.6881 79.4719 81.4812 79.809 80.4982C80.0112 79.8773 80.2134 79.0496 80.2134 78.6874C80.2134 78.377 80.5504 78.0666 80.8875 78.0666C81.2919 78.0666 81.5615 78.377 81.5615 78.6874Z" fill="black"/>
<path d="M87.291 80.3947C87.291 84.9476 87.3584 85.3097 88.6391 85.3097C89.8525 85.3097 89.9873 84.9993 89.785 82.3607L89.5828 79.36L90.9309 80.5499C91.6724 81.2225 92.4813 82.5677 92.7509 83.5507C93.0879 84.9476 93.4924 85.3097 94.7057 85.3097H96.1886L94.5709 82.6711L92.8857 80.0326L94.3013 79.2565C97.3345 77.6527 95.1775 75.4797 90.4591 75.4797H87.291V80.3947ZM92.8183 77.3422C93.425 78.5322 91.942 79.4117 90.6613 78.5839C90.1221 78.2218 89.6502 77.6009 89.6502 77.2388C89.6502 76.2558 92.2791 76.3075 92.8183 77.3422Z" fill="black"/>
<path d="M96.7954 76.3075C96.1887 77.5492 96.3235 77.8079 97.1998 77.1353C97.6716 76.7731 98.4131 76.5145 98.9524 76.5145C99.6938 76.5145 99.8286 77.4457 99.6264 80.9121C99.4242 84.9993 99.4916 85.3097 100.772 85.3097C102.053 85.3097 102.12 84.9993 101.918 80.8603C101.716 76.5145 101.716 76.3592 103.064 76.6697C104.008 76.8249 104.48 76.6697 104.48 76.204C104.48 75.1176 97.3346 75.1693 96.7954 76.3075Z" fill="black"/>
<path d="M106.165 80.3947V85.3097H109.737C112.905 85.3097 113.242 85.2062 113.242 84.1715C113.242 83.292 113.04 83.1885 112.433 83.6541C111.961 84.0163 110.95 84.275 110.074 84.275C108.659 84.275 108.524 84.0163 108.524 81.7916C108.524 79.3082 108.524 79.2565 110.546 79.5152C111.759 79.6704 112.568 79.5152 112.568 79.153C112.568 78.6357 111.49 78.377 109.4 78.4287C108.928 78.4805 108.524 78.0148 108.524 77.4457C108.524 76.5662 108.861 76.411 110.546 76.6179C111.759 76.7731 112.636 76.6179 112.838 76.1523C113.107 75.6349 112.299 75.4797 109.67 75.4797H106.165V80.3947Z" fill="black"/>
<path d="M120.657 80.4464V85.3614L124.162 85.2062C127.128 85.1028 127.735 84.8958 127.937 84.0163C128.139 83.1885 128.004 83.085 127.33 83.6024C126.859 83.9645 125.578 84.275 124.499 84.275C122.679 84.275 122.612 84.2232 122.814 81.7916C123.016 79.5152 123.084 79.36 124.836 79.5152C125.78 79.6187 126.791 79.4117 127.061 79.153C127.465 78.5839 126.185 78.3252 123.893 78.4804C123.084 78.5322 122.679 78.2218 122.679 77.5492C122.679 76.7214 123.151 76.5144 125.039 76.5144C126.319 76.5144 127.398 76.2558 127.398 75.9971C127.398 75.6867 125.915 75.4797 124.028 75.4797H120.657V80.4464Z" fill="black"/>
<path d="M129.42 80.3947C129.42 84.7406 129.555 85.3097 130.633 85.3097C131.644 85.3097 131.779 84.8441 131.577 81.326L131.442 77.2905L133.127 78.7391C134.071 79.5152 134.947 80.8086 135.217 81.5847C135.419 82.3607 135.689 83.4989 135.891 84.1198C136.565 86.8101 137.441 84.9993 137.643 80.3947C137.846 76.0488 137.711 75.4797 136.7 75.4797C135.756 75.4797 135.621 75.8419 135.958 77.394L136.363 79.36L134.004 77.394C130.094 74.238 129.42 74.6519 129.42 80.3947Z" fill="black"/>
<path d="M146.271 79.0496C146.271 81.0156 146.002 83.2402 145.597 83.9646C145.058 85.1545 145.125 85.3097 146.474 85.3097C147.889 85.3097 147.956 85.1545 147.754 81.6364C147.485 77.8079 148.091 77.2905 149.642 80.136C150.113 80.9638 150.72 81.6881 150.99 81.6881C151.259 81.6881 151.866 80.9638 152.338 80.136C153.888 77.2905 154.495 77.8079 154.225 81.6364C154.023 85.2062 154.09 85.3097 155.641 85.3097C156.787 85.3097 157.124 85.1028 156.787 84.4819C156.584 84.0163 156.382 81.8433 156.382 79.5669C156.382 75.9453 156.247 75.4797 155.169 75.4797C154.427 75.4797 153.484 76.2558 152.742 77.394L151.529 79.36L150.248 77.394C149.372 76.1523 148.496 75.4797 147.619 75.4797C146.406 75.4797 146.271 75.8419 146.271 79.0496Z" fill="black"/>
<path d="M158.742 80.3947V85.3097H162.314C164.876 85.3097 165.819 85.1028 165.819 84.5854C165.819 84.0163 165.213 83.9128 163.46 84.1198L161.101 84.4302V81.7916C161.101 79.153 161.101 79.153 163.056 79.4117C164.134 79.6187 165.213 79.4634 165.415 79.153C165.887 78.6357 164.134 78.3252 161.977 78.5322C161.505 78.5839 161.101 78.1183 161.101 77.4975C161.101 76.5662 161.438 76.411 163.123 76.6179C164.336 76.7731 165.213 76.6179 165.415 76.1523C165.685 75.6349 164.876 75.4797 162.247 75.4797H158.742V80.3947Z" fill="black"/>
<path d="M167.167 76.204C167.167 76.6697 167.639 76.8249 168.583 76.6697C169.931 76.3592 169.931 76.5145 169.729 80.8603C169.527 84.9993 169.594 85.3097 170.875 85.3097C172.156 85.3097 172.223 84.9993 172.021 80.8603C171.819 76.5145 171.819 76.3592 173.167 76.6697C174.11 76.8249 174.582 76.6697 174.582 76.204C174.582 75.6867 173.638 75.4797 170.875 75.4797C168.111 75.4797 167.167 75.6867 167.167 76.204Z" fill="black"/>
<path d="M177.683 79.4634C177.009 81.6881 176.132 83.9128 175.795 84.3784C175.324 85.1028 175.458 85.3097 176.604 85.3097C177.615 85.3097 177.952 84.9476 177.952 84.0163C177.952 82.9298 178.289 82.7229 179.975 82.7229C181.66 82.7229 181.997 82.9298 181.997 84.0163C181.997 85.051 182.334 85.3097 183.749 85.3097C184.76 85.3097 185.3 85.1028 185.03 84.7406C184.76 84.4302 183.884 82.309 183.075 79.9808C181.929 76.5144 181.39 75.6867 180.244 75.5832C179.031 75.428 178.761 75.9453 177.683 79.4634ZM180.649 78.6874C180.649 79.0496 180.851 79.8773 181.053 80.4982C181.39 81.4812 181.188 81.6881 179.975 81.6881C178.761 81.6881 178.559 81.4812 178.896 80.4982C179.098 79.8773 179.301 79.0496 179.301 78.6874C179.301 78.377 179.638 78.0666 179.975 78.0666C180.379 78.0666 180.649 78.377 180.649 78.6874Z" fill="black"/>
<path d="M186.378 80.3947V85.3097H189.614C192.445 85.3097 192.782 85.2062 192.782 84.1715C192.782 83.292 192.58 83.1885 191.973 83.6541C191.501 84.0163 190.625 84.275 189.951 84.275C188.872 84.275 188.737 83.7576 188.737 79.8773C188.737 76.0488 188.603 75.4797 187.591 75.4797C186.513 75.4797 186.378 76.0488 186.378 80.3947Z" fill="black"/>
<path d="M2.157 89.0348C1.68515 89.3969 1.34812 90.173 1.34812 90.7938C1.34812 91.4664 1.0785 92.139 0.674062 92.2942C0.337031 92.4494 0 92.915 0 93.2254C0 93.5876 0.337031 93.4324 0.741468 92.915C1.0785 92.4494 2.08959 91.9838 2.89847 91.9838C4.11178 91.932 4.17918 91.8803 3.16809 91.6733C2.35922 91.5181 2.02219 91.0525 2.157 90.3282C2.29181 89.5004 2.89847 89.1382 4.51621 89.0348C7.34727 88.8278 10.7176 91.1042 14.0879 95.6053C15.5708 97.4679 17.7278 99.6926 18.9411 100.572C21.0981 102.072 21.0307 102.021 18.6715 99.8995C16.9189 98.3991 16.1775 97.2092 16.1101 96.0192C16.1101 95.1397 15.9079 94.6741 15.7056 94.9845C15.5034 95.3984 14.1553 94.3119 12.4027 92.5529C10.785 90.7938 8.62799 89.19 7.6843 88.9313C5.39249 88.2587 3.10068 88.3104 2.157 89.0348Z" fill="black"/>
<path d="M260.39 88.9313C259.581 89.19 257.559 90.7938 255.874 92.5529C254.121 94.3119 252.773 95.3984 252.571 94.9845C252.369 94.6741 252.167 95.1397 252.167 96.0192C252.099 97.2092 251.358 98.3991 249.605 99.8995C247.246 102.021 247.179 102.072 249.336 100.572C250.549 99.6926 252.706 97.4679 254.189 95.6053C257.559 91.1042 260.929 88.8278 263.76 89.0348C265.378 89.1382 265.985 89.5004 266.12 90.3282C266.254 91.0525 265.917 91.5181 265.109 91.6733C264.097 91.8803 264.165 91.932 265.378 91.9838C266.187 91.9838 267.198 92.4494 267.535 92.915C267.94 93.4324 268.277 93.5876 268.277 93.2254C268.277 92.915 268.007 92.4494 267.603 92.2942C267.266 92.139 266.929 91.4664 266.929 90.7938C266.929 88.6209 264.097 87.7931 260.39 88.9313Z" fill="black"/>
<path d="M22.7833 89.2935C23.1877 89.3969 23.9966 89.3969 24.4684 89.2935C24.8729 89.1382 24.5358 89.0348 23.5922 89.0348C22.6485 89.0348 22.3114 89.1382 22.7833 89.2935Z" fill="black"/>
<path d="M243.876 89.2935C244.28 89.3969 245.089 89.3969 245.561 89.2935C245.965 89.1382 245.628 89.0348 244.684 89.0348C243.741 89.0348 243.404 89.1382 243.876 89.2935Z" fill="black"/>
<path d="M17.1212 91.2077C15.8404 92.1907 14.8293 93.2772 14.8293 93.6393C14.8293 94.0532 15.436 93.5876 16.1775 92.6563C16.9189 91.7251 18.5367 90.6386 19.75 90.2247C21.0981 89.7591 21.4352 89.5004 20.6937 89.4487C19.9522 89.4487 18.4019 90.2247 17.1212 91.2077Z" fill="black"/>
<path d="M248.527 90.2247C249.74 90.6386 251.358 91.7251 252.099 92.6563C252.841 93.5876 253.447 94.0532 253.447 93.6393C253.447 92.6046 249.066 89.4487 247.65 89.4487C246.842 89.5004 247.179 89.7591 248.527 90.2247Z" fill="black"/>
<path d="M7.07772 90.7938C7.81919 91.2077 8.42584 91.7768 8.42584 92.0355C8.42584 92.6563 9.30212 93.2772 10.5828 93.3807C11.2569 93.4841 10.7851 92.8633 9.36953 91.7251C8.15622 90.7421 6.8081 89.966 6.47107 89.966C6.06663 89.966 6.33625 90.3282 7.07772 90.7938Z" fill="black"/>
<path d="M45.4317 90.7421C43.1399 91.4664 42.4658 92.3977 42.4658 94.5706C42.4658 98.8648 50.5546 100.21 52.779 96.3297L53.5878 94.881H135.014C209.026 94.881 216.374 94.9328 216.374 95.7088C216.374 96.847 218.328 98.0887 220.755 98.5543C221.901 98.7613 223.249 99.1752 223.788 99.4339C224.597 99.8995 224.665 99.8478 223.991 99.3304C223.384 98.7613 223.654 98.3474 225.204 97.3644C229.113 94.8293 226.687 90.2764 221.429 90.2764C218.935 90.2764 216.374 91.6733 216.374 93.0185C216.374 93.7945 209.026 93.8463 134.812 93.8463C74.2141 93.8463 53.2508 93.6911 53.2508 93.2772C53.2508 92.2424 50.959 90.5869 49.2064 90.3282C48.2628 90.173 46.5776 90.3282 45.4317 90.7421Z" fill="black"/>
<path d="M258.907 91.7251C257.492 92.8633 257.02 93.4841 257.694 93.3807C258.975 93.2772 259.851 92.6563 259.851 92.0355C259.851 91.7768 260.458 91.2077 261.199 90.7938C261.94 90.3282 262.21 89.966 261.806 89.966C261.469 89.966 260.12 90.7421 258.907 91.7251Z" fill="black"/>
<path d="M22.1091 90.8455C22.581 91.0008 23.1876 90.949 23.3898 90.7938C23.6594 90.6386 23.255 90.4834 22.5135 90.5351C21.7721 90.5351 21.5699 90.6903 22.1091 90.8455Z" fill="black"/>
<path d="M31.4114 91.3629C31.0069 92.0872 31.0744 92.139 31.7484 91.6733C32.2203 91.3112 32.4225 90.8973 32.2203 90.7421C32.018 90.5869 31.6136 90.8456 31.4114 91.3629Z" fill="black"/>
<path d="M235.922 90.949C235.922 91.2594 236.191 91.6216 236.596 91.7768C237 91.932 237.068 91.7251 236.865 91.3112C236.393 90.3799 235.922 90.2247 235.922 90.949Z" fill="black"/>
<path d="M245.224 90.8455C245.695 91.0008 246.302 90.949 246.504 90.7938C246.774 90.6386 246.37 90.4834 245.628 90.5351C244.887 90.5351 244.684 90.6903 245.224 90.8455Z" fill="black"/>
<path d="M22.7833 92.915C23.1877 93.0185 23.9966 93.0185 24.4684 92.915C24.8729 92.7598 24.5358 92.6563 23.5922 92.6563C22.6485 92.6563 22.3114 92.7598 22.7833 92.915Z" fill="black"/>
<path d="M243.876 92.915C244.28 93.0185 245.089 93.0185 245.561 92.915C245.965 92.7598 245.628 92.6563 244.684 92.6563C243.741 92.6563 243.404 92.7598 243.876 92.915Z" fill="black"/>
<path d="M3.50508 93.5359C7.0102 94.105 8.76276 95.1397 13.2116 99.3304C18.7389 104.556 21.5025 105.591 28.9846 105.384C35.0512 105.177 37.8822 104.452 41.4548 102.072C43.7466 100.572 42.4658 100.986 39.4326 102.693C34.7141 105.384 25.3447 105.642 19.9522 103.211C18.3344 102.486 15.3686 100.365 13.4812 98.5026C9.77385 94.9328 6.06651 93.0185 2.89842 93.122C1.28068 93.1737 1.34808 93.2254 3.50508 93.5359Z" fill="black"/>
<path d="M30.1307 93.3806C29.8611 93.5876 29.8611 94.2084 29.9959 94.8293C30.4003 96.071 29.8611 96.7953 27.9737 97.6231C27.2322 97.9335 26.9626 98.2439 27.3671 98.2439C29.0522 98.2439 30.6026 96.7435 30.67 94.9328C30.8048 92.915 30.8048 92.915 30.1307 93.3806Z" fill="black"/>
<path d="M237.607 94.9845C237.674 96.7435 239.225 98.2439 240.91 98.2439C241.314 98.2439 241.045 97.9335 240.303 97.6231C238.416 96.7953 237.877 96.071 238.281 94.7775C238.483 94.1567 238.348 93.5359 238.079 93.3806C237.742 93.2254 237.54 93.9498 237.607 94.9845Z" fill="black"/>
<path d="M260.795 94.105C259.446 94.6741 256.75 96.6401 254.795 98.5026C250.347 102.797 246.639 104.504 241.045 104.814C236.393 105.125 229.99 103.987 228.507 102.642C227.968 102.176 226.957 101.555 226.215 101.296C225.406 100.986 225.878 101.452 227.159 102.331C230.394 104.504 234.574 105.487 240.303 105.487C246.841 105.487 249.875 104.194 255.065 99.3304C259.514 95.1397 261.266 94.105 264.771 93.5359C267.063 93.2254 267.131 93.1737 265.243 93.1737C264.165 93.122 262.143 93.5876 260.795 94.105Z" fill="black"/>
<path d="M18.739 94.9845C19.2108 95.1397 19.8175 95.088 20.0197 94.9328C20.2893 94.7775 19.8849 94.6223 19.1434 94.6741C18.402 94.6741 18.1997 94.8293 18.739 94.9845Z" fill="black"/>
<path d="M248.594 94.9845C249.066 95.1397 249.672 95.088 249.875 94.9328C250.144 94.7775 249.74 94.6223 248.998 94.6741C248.257 94.6741 248.055 94.8293 248.594 94.9845Z" fill="black"/>
<path d="M27.9734 99.9512C29.9956 102.331 34.7814 103.055 38.7584 101.607C40.3087 101.038 40.3762 100.934 39.0954 101.245C38.1517 101.452 35.9273 101.607 34.1748 101.607C31.4111 101.607 30.6023 101.348 29.3215 100.158C27.3668 98.4509 26.5579 98.2956 27.9734 99.9512Z" fill="black"/>
<path d="M238.888 100.21C237.674 101.348 236.865 101.607 234.169 101.607C232.349 101.607 230.125 101.452 229.181 101.245C227.9 100.934 227.968 101.038 229.518 101.607C233.495 103.055 238.281 102.331 240.303 99.9512C241.719 98.2956 240.64 98.5026 238.888 100.21Z" fill="black"/>
<path d="M95.5145 99.8478C95.9864 100.21 96.5256 100.365 96.7279 100.21C96.9301 100.055 96.593 99.7443 95.919 99.5891C94.9753 99.2786 94.9079 99.3304 95.5145 99.8478Z" fill="black"/>
<path d="M105.289 102.486C105.491 105.487 105.626 105.746 107.109 105.901C108.794 106.108 110.546 104.918 110.546 103.625C110.546 102.59 108.591 101.348 107.513 101.659C106.771 101.917 106.502 101.607 106.502 100.624C106.502 99.8995 106.165 99.2787 105.828 99.2787C105.356 99.2787 105.154 100.52 105.289 102.486ZM108.861 103.935C108.861 104.763 108.457 105.28 107.715 105.384C106.771 105.539 106.502 105.228 106.502 103.935C106.502 102.642 106.771 102.331 107.715 102.486C108.457 102.59 108.861 103.107 108.861 103.935Z" fill="black"/>
<path d="M92.7509 100.572C92.3465 101.4 94.5035 103.418 95.7168 103.418C96.6605 103.418 96.5257 105.332 95.582 105.694C95.1102 105.849 95.3124 105.953 96.0538 105.849C98.2783 105.642 98.1434 103.676 95.7168 102.383C94.5035 101.71 93.762 100.934 93.9643 100.52C94.1665 100.106 94.0317 99.796 93.762 99.796C93.425 99.796 93.0206 100.158 92.7509 100.572Z" fill="black"/>
<path d="M126.05 100.313C126.05 100.572 126.387 100.831 126.724 100.831C127.128 100.831 127.398 100.572 127.398 100.313C127.398 100.003 127.128 99.796 126.724 99.796C126.387 99.796 126.05 100.003 126.05 100.313Z" fill="black"/>
<path d="M144.249 102.9V106.004H146.608C149.237 106.004 151.664 104.556 151.664 102.9C151.664 101.814 149.44 99.796 148.294 99.796C147.957 99.796 148.226 100.262 148.968 100.831C151.327 102.642 150.181 105.487 147.215 105.487C145.53 105.487 145.463 105.384 145.732 102.642C145.867 100.624 145.665 99.796 145.126 99.796C144.519 99.796 144.249 100.779 144.249 102.9Z" fill="black"/>
<path d="M23.7945 101.4C23.5248 102.072 23.053 102.331 22.3115 102.176C21.57 101.969 21.6375 102.072 22.5137 102.642C24.3337 103.728 24.6033 103.625 24.6033 101.865C24.6033 100.055 24.2663 99.8478 23.7945 101.4Z" fill="black"/>
<path d="M243.673 101.917C243.673 103.625 243.943 103.728 245.763 102.642C246.841 101.969 246.841 101.917 245.898 102.176C245.089 102.383 244.684 102.228 244.684 101.71C244.684 101.245 244.482 100.779 244.213 100.676C243.876 100.52 243.673 101.089 243.673 101.917Z" fill="black"/>
<path d="M26.6255 101.296C26.4232 101.555 26.4907 101.917 26.8277 102.072C27.1647 102.228 27.4343 102.021 27.4343 101.607C27.4343 100.727 27.2321 100.624 26.6255 101.296Z" fill="black"/>
<path d="M122.41 101.452C122.14 101.917 122.005 103.055 122.14 103.987C122.275 105.28 122.679 105.797 123.69 105.901C124.567 106.004 124.769 105.901 124.23 105.642C123.825 105.384 123.353 104.142 123.219 102.9C123.016 101.296 122.814 100.831 122.41 101.452Z" fill="black"/>
<path d="M168.92 101.452C168.65 101.917 168.515 103.055 168.65 103.987C168.785 105.28 169.19 105.797 170.201 105.901C171.077 106.004 171.279 105.901 170.74 105.642C170.335 105.384 169.864 104.142 169.729 102.9C169.527 101.296 169.324 100.831 168.92 101.452Z" fill="black"/>
<path d="M240.842 101.607C240.842 102.021 241.112 102.228 241.449 102.072C241.786 101.917 241.853 101.555 241.651 101.296C241.045 100.624 240.842 100.727 240.842 101.607Z" fill="black"/>
<path d="M100.166 102.021C99.3567 102.486 99.0197 103.211 99.2219 104.194C99.3567 105.487 99.7611 105.746 101.446 105.849C102.794 105.901 102.997 105.849 101.986 105.642C101.109 105.539 100.435 105.28 100.368 105.073C100.368 104.866 100.233 104.297 100.098 103.832C99.7611 102.435 101.514 101.607 102.323 102.745C102.727 103.262 103.266 103.521 103.536 103.314C104.008 102.9 102.66 101.348 101.851 101.348C101.581 101.348 100.84 101.659 100.166 102.021Z" fill="black"/>
<path d="M112.299 101.814C112.096 102.072 112.433 102.228 113.108 102.176C114.523 102.124 114.725 105.021 113.31 105.384C112.636 105.539 112.501 105.384 112.77 104.763C113.108 104.142 112.973 103.935 112.433 104.038C110.613 104.504 111.557 105.746 113.714 105.746C115.736 105.797 115.804 105.694 115.467 104.194C115.332 103.366 115.062 102.331 114.86 101.969C114.59 101.245 112.838 101.141 112.299 101.814Z" fill="black"/>
<path d="M117.354 102.021C116.815 102.59 116.95 102.952 117.961 103.676C119.646 104.814 119.646 105.332 118.163 105.642C117.219 105.849 117.287 105.901 118.433 105.953C120.59 106.056 120.994 105.073 119.376 103.728C117.556 102.228 117.556 101.71 119.511 102.124C120.657 102.383 120.792 102.331 119.983 101.917C118.635 101.193 118.298 101.193 117.354 102.021Z" fill="black"/>
<path d="M130.97 102.072C132.116 102.952 131.981 105.073 130.768 105.384C130.161 105.539 130.026 105.332 130.296 104.763C130.633 104.142 130.498 103.935 129.959 104.038C129.487 104.194 129.015 104.659 128.881 105.125C128.678 105.797 129.15 105.953 130.903 105.901C133.06 105.849 133.127 105.797 132.925 103.987C132.655 102.228 131.846 101.4 130.566 101.348C130.229 101.348 130.431 101.659 130.97 102.072Z" fill="black"/>
<path d="M136.565 101.814C136.295 102.124 135.756 102.228 135.284 102.072C134.678 101.917 134.475 102.435 134.678 103.935C135.015 106.47 136.161 106.677 136.161 104.194C136.161 101.607 137.981 101.71 138.385 104.297C138.655 106.056 138.655 106.004 138.587 103.987C138.52 101.814 137.441 100.676 136.565 101.814Z" fill="black"/>
<path d="M159.483 101.814C159.281 102.072 159.618 102.228 160.292 102.176C161.707 102.124 161.91 105.021 160.494 105.384C159.82 105.539 159.685 105.384 159.955 104.763C160.292 104.142 160.157 103.935 159.618 104.038C157.798 104.504 158.741 105.746 160.898 105.746C162.921 105.797 162.988 105.694 162.651 104.194C162.516 103.366 162.247 102.331 162.044 101.969C161.775 101.245 160.022 101.141 159.483 101.814Z" fill="black"/>
<path d="M175.391 102.383C176.267 103.418 177.278 103.78 177.278 103.004C177.278 102.486 175.795 101.348 175.121 101.348C174.784 101.348 174.919 101.814 175.391 102.383Z" fill="black"/>
<path d="M126.05 103.935C126.05 105.073 126.387 106.004 126.724 106.004C127.128 106.004 127.398 105.073 127.398 103.935C127.398 102.797 127.128 101.865 126.724 101.865C126.387 101.865 126.05 102.797 126.05 103.935Z" fill="black"/>
<path d="M153.147 103.78C153.012 105.953 153.079 105.953 155.236 105.901C157.393 105.849 157.393 105.797 157.124 103.728L156.787 101.607L156.45 103.418C155.843 106.056 153.888 106.16 153.484 103.573L153.214 101.607L153.147 103.78Z" fill="black"/>
<path d="M164.471 103.935C164.471 105.073 164.808 106.004 165.145 106.004C165.55 106.004 165.819 105.228 165.819 104.245C165.819 103.262 166.224 102.331 166.696 102.228C167.1 102.072 166.83 101.917 166.022 101.917C164.673 101.865 164.471 102.124 164.471 103.935Z" fill="black"/>
<path d="M172.829 102.59C172.627 103.004 172.56 103.883 172.695 104.556C172.829 105.487 173.369 105.746 174.919 105.849C176.806 105.953 176.806 105.901 175.256 105.539C173.908 105.228 173.571 104.866 173.638 103.521C173.773 101.762 173.436 101.4 172.829 102.59Z" fill="black"/>
<path d="M28.3106 103.418C28.8498 103.676 29.6587 103.935 29.9957 103.935C30.4002 103.935 30.1979 103.676 29.6587 103.418C29.1194 103.159 28.378 102.9 27.9735 102.9C27.6365 102.9 27.7713 103.159 28.3106 103.418Z" fill="black"/>
<path d="M238.618 103.418C238.079 103.676 237.944 103.935 238.281 103.935C238.685 103.935 239.427 103.676 239.966 103.418C240.505 103.159 240.708 102.9 240.303 102.9C239.966 102.9 239.157 103.159 238.618 103.418Z" fill="black"/>
<path d="M134.745 112.109C135.621 113.351 138.789 114.8 140.744 114.8C141.486 114.8 142.901 115.317 143.912 115.938C145.463 116.869 145.665 117.283 145.395 119.042C145.126 120.698 145.26 121.008 146.339 121.008C147.013 121.008 148.226 121.474 149.035 122.095C149.777 122.664 150.586 123.078 150.72 122.922C151.192 122.612 147.62 120.491 146.676 120.491C146.137 120.491 146.002 119.818 146.137 118.68C146.474 116.3 144.991 114.955 141.014 114.179C139.396 113.868 137.104 113.041 136.026 112.265C134.071 111.075 134.004 111.023 134.745 112.109Z" fill="black"/>
<path d="M55.2057 113.662C54.1946 115.628 54.7338 116.973 56.756 117.904C58.4412 118.577 59.0478 118.577 62.6203 117.852L66.5973 117.076L66.3951 118.628C66.2603 119.818 66.3277 119.87 66.5973 118.939L66.9343 117.645L67.4736 118.939C67.9454 120.025 68.0128 119.973 67.7432 118.525C67.541 117.49 67.6758 116.921 68.0802 117.128C68.4847 117.283 68.7543 117.231 68.7543 116.921C68.7543 116.611 69.5632 116.041 70.6417 115.628C73.6075 114.334 71.1809 114.696 67.3388 116.093C60.3959 118.525 55.2731 118.266 55.2731 115.524C55.2731 114.438 55.4753 114.282 56.8234 114.541C58.1041 114.8 58.1715 114.748 57.1604 114.282C54.8686 113.196 55.9471 112.834 58.4412 113.817C61.5418 115.058 61.9463 115.058 69.1587 113.713C72.9335 113.041 75.8994 112.782 77.4497 112.989C80.8874 113.455 85.0666 115.472 88.0325 118.007C90.3243 120.077 90.3917 120.077 89.2458 118.525C87.7628 116.455 83.9881 114.075 80.6178 112.989C77.4497 111.954 74.1468 112.006 68.1476 113.248C61.9463 114.541 61.5418 114.541 58.4412 113.299L55.8797 112.316L55.2057 113.662Z" fill="black"/>
<path d="M133.06 112.678C132.723 112.937 130.835 113.506 128.948 114.024C124.769 115.007 122.41 116.973 122.882 118.939C123.151 119.973 122.882 120.387 121.129 121.008C119.579 121.577 118.905 122.198 118.77 123.233C118.568 124.733 119.579 126.182 120.859 126.182C121.196 126.182 121.062 125.768 120.455 125.251C119.781 124.733 119.309 123.957 119.309 123.491C119.309 122.612 121.062 121.319 122.814 120.853C123.69 120.594 123.893 120.18 123.623 118.99C123.084 116.973 124.904 115.627 129.622 114.593C131.712 114.127 133.599 113.506 133.801 113.196C134.408 112.472 133.869 112.109 133.06 112.678Z" fill="black"/>
<path d="M188.198 113.041C185.839 113.868 179.3 118.525 179.3 119.404C179.3 119.715 180.581 118.887 182.131 117.593C187.591 113.041 192.04 112.109 200.264 113.765C206.128 114.903 209.229 114.851 211.992 113.455C212.801 113.041 213.677 112.885 214.014 113.092C214.284 113.351 214.352 113.248 214.149 112.885C213.812 112.472 212.734 112.627 210.375 113.403L207.004 114.438L201.679 113.351C195.545 112.058 191.433 111.954 188.198 113.041Z" fill="black"/>
<path d="M212.329 114.334C211.521 114.748 211.588 114.8 212.666 114.696C214.891 114.438 214.891 116.714 212.666 117.387C209.97 118.163 208.622 118.007 203.095 116.352C197.635 114.696 196.085 114.386 199.05 115.627C200.061 116.041 200.87 116.61 200.87 116.921C200.87 117.231 201.207 117.283 201.544 117.128C201.949 116.921 203.769 117.18 205.656 117.645C209.161 118.525 212.397 118.421 214.149 117.335C216.104 116.041 214.419 113.248 212.329 114.334Z" fill="black"/>
<path d="M75.6972 114.644C77.4497 114.748 78.7304 115.058 78.5282 115.317C78.326 115.627 78.5956 115.679 79.1349 115.524C81.2245 114.903 79.4045 114.282 75.9668 114.386L72.4617 114.489L75.6972 114.644Z" fill="black"/>
<path d="M189.816 114.748C189.614 115.007 189.883 115.369 190.49 115.524C191.029 115.679 191.299 115.627 191.097 115.317C190.894 115.058 192.175 114.748 193.928 114.644L197.163 114.489L193.658 114.386C191.771 114.334 190.018 114.489 189.816 114.748Z" fill="black"/>
<path d="M58.7107 116.041C59.4522 116.507 63.3617 116.817 63.0247 116.352C62.8225 116.041 61.6766 115.834 60.5307 115.834C59.3848 115.834 58.5759 115.938 58.7107 116.041Z" fill="black"/>
<path d="M133.936 116.145C133.667 116.352 133.464 116.766 133.464 117.076C133.464 117.387 133.801 117.283 134.138 116.869C134.745 116.197 134.88 116.197 135.554 116.869C136.161 117.49 136.228 117.49 136.026 116.921C135.689 116.041 134.61 115.627 133.936 116.145Z" fill="black"/>
<path d="M187.389 116.352C187.389 116.662 187.861 116.869 188.4 116.869C188.94 116.869 189.411 116.766 189.411 116.662C189.411 116.559 188.94 116.352 188.4 116.145C187.861 115.99 187.389 116.093 187.389 116.352Z" fill="black"/>
<path d="M197.905 116.507C198.107 117.024 198.511 117.283 198.713 117.128C198.916 116.973 198.713 116.559 198.242 116.197C197.568 115.731 197.5 115.783 197.905 116.507Z" fill="black"/>
<path d="M206.6 116.352C206.33 116.662 207.004 116.714 208.42 116.507C211.386 116.093 211.655 115.834 209.094 115.834C207.948 115.834 206.802 116.041 206.6 116.352Z" fill="black"/>
<path d="M80.7527 116.714C81.2245 116.869 81.8312 116.817 82.0334 116.662C82.303 116.507 81.8986 116.352 81.1571 116.404C80.4156 116.404 80.2134 116.559 80.7527 116.714Z" fill="black"/>
<path d="M201.949 118.163C201.342 119.508 201.477 119.818 202.286 118.783C202.69 118.266 202.892 117.697 202.69 117.593C202.555 117.438 202.218 117.697 201.949 118.163Z" fill="black"/>
<path d="M80.8875 118.421C80.146 118.783 80.4831 118.939 82.3704 118.939C84.0556 118.939 85.5385 119.404 87.0889 120.336C88.9762 121.577 89.1111 121.577 87.9651 120.542C87.2237 119.87 85.6733 118.99 84.46 118.628C81.8986 117.8 82.1682 117.8 80.8875 118.421Z" fill="black"/>
<path d="M132.992 119.973C132.992 121.267 133.127 121.784 133.262 121.112C133.397 120.491 133.397 119.456 133.262 118.783C133.127 118.163 132.992 118.68 132.992 119.973Z" fill="black"/>
<path d="M186.041 118.266C183.682 118.783 181.929 119.715 180.851 120.956C179.84 122.146 180.042 122.095 182.266 120.594C184.356 119.197 185.3 118.887 187.457 118.99C189.142 119.094 190.355 118.887 190.894 118.421C191.636 117.8 191.636 117.749 190.827 118.266C190.288 118.628 189.344 118.68 188.468 118.473C187.726 118.214 186.58 118.163 186.041 118.266Z" fill="black"/>
<path d="M77.652 119.197C78.2586 119.766 78.8653 120.801 79.0675 121.525L79.3371 122.819L79.472 121.474C79.472 120.646 78.9327 119.766 78.0564 119.146C76.5061 118.163 76.5061 118.163 77.652 119.197Z" fill="black"/>
<path d="M136.295 119.818C136.228 120.698 135.958 121.888 135.756 122.405C135.419 123.285 135.419 123.285 136.161 122.405C136.565 121.939 136.767 120.749 136.632 119.818L136.363 118.163L136.295 119.818Z" fill="black"/>
<path d="M190.692 119.818C189.816 120.646 189.883 120.698 190.962 120.025C192.04 119.353 192.377 118.939 191.838 118.939C191.703 118.939 191.164 119.353 190.692 119.818Z" fill="black"/>
<path d="M196.556 119.353C196.354 119.559 196.826 119.818 197.568 119.818C199.118 119.922 199.253 119.663 197.837 119.301C197.298 119.094 196.759 119.146 196.556 119.353Z" fill="black"/>
<path d="M90.3916 121.319C90.3916 121.888 90.5939 122.043 90.7961 121.629C90.9983 121.267 90.9309 120.801 90.7287 120.646C90.5265 120.439 90.3242 120.749 90.3916 121.319Z" fill="black"/>
<path d="M202.016 121.474C201.747 122.353 201.814 122.56 202.353 122.146C202.69 121.888 202.893 121.319 202.758 120.956C202.556 120.542 202.286 120.801 202.016 121.474Z" fill="black"/>
<path d="M70.1025 121.215C70.1025 121.319 70.5744 121.577 71.181 121.732C71.7203 121.888 71.9899 121.836 71.7877 121.525C71.3833 121.008 70.1025 120.801 70.1025 121.215Z" fill="black"/>
<path d="M80.2132 122.664C79.5392 123.75 79.5392 123.75 80.4154 122.922C80.9547 122.457 82.1006 122.043 83.0443 122.043C84.8642 122.043 88.302 123.802 88.302 124.733C88.302 124.992 87.3583 124.63 86.2124 123.905C85.0665 123.181 83.7857 122.56 83.3813 122.56C82.9095 122.612 83.4487 122.974 84.4598 123.388C85.4709 123.802 86.145 124.371 85.9427 124.63C85.4709 125.199 86.8864 125.871 88.8412 125.975C90.9308 126.027 90.7286 125.561 87.6279 123.388C84.3924 121.163 81.3591 120.853 80.2132 122.664Z" fill="black"/>
<path d="M183.143 122.25C182.469 122.664 181.12 123.75 180.244 124.733C179.3 125.664 178.357 126.337 178.155 126.182C177.885 126.027 177.143 127.061 176.537 128.51C175.189 131.407 175.795 130.993 179.3 126.596C180.716 124.837 181.592 124.216 182.334 124.423C183.21 124.681 183.21 124.888 182.536 125.613C181.862 126.234 181.997 126.234 183.075 125.509C183.884 124.992 185.03 124.733 185.771 124.888C186.648 125.147 186.58 124.992 185.502 124.526C184.693 124.112 184.154 123.647 184.356 123.44C184.491 123.233 184.289 123.285 183.884 123.595C183.412 123.854 182.738 124.112 182.401 124.112C180.918 124.061 184.895 122.043 186.446 122.043C188.265 122.043 189.411 123.491 188.131 124.112C187.524 124.371 187.659 124.578 188.602 124.733C189.748 124.992 189.816 124.785 189.479 123.388C189.074 121.991 188.737 121.784 186.715 121.681C185.434 121.577 183.817 121.836 183.143 122.25Z" fill="black"/>
<path d="M140.34 123.491C139.598 124.785 139.598 124.785 140.609 124.009C141.216 123.543 141.62 122.922 141.486 122.612C141.351 122.302 140.812 122.715 140.34 123.491Z" fill="black"/>
<path d="M178.02 122.871C178.02 123.44 178.222 123.595 178.424 123.181C178.626 122.819 178.559 122.353 178.357 122.198C178.155 121.991 177.952 122.302 178.02 122.871Z" fill="black"/>
<path d="M68.4173 123.595C69.0913 124.164 69.7654 124.63 69.9676 124.63C70.1698 124.63 69.7654 124.164 69.0913 123.595C68.4173 123.026 67.7432 122.56 67.541 122.56C67.3388 122.56 67.7432 123.026 68.4173 123.595Z" fill="black"/>
<path d="M90.9982 123.336C90.9308 123.905 90.796 124.94 90.6612 125.664C90.459 127.113 92.953 130.735 95.2448 132.183C96.5929 133.115 96.5929 133.063 95.11 131.769C94.2337 130.993 93.2226 129.389 92.8856 128.148C91.5375 123.285 91.133 122.302 90.9982 123.336Z" fill="black"/>
<path d="M172.56 122.767C172.56 122.871 173.032 123.129 173.638 123.285C174.178 123.44 174.447 123.388 174.245 123.078C173.841 122.56 172.56 122.353 172.56 122.767Z" fill="black"/>
<path d="M190.827 123.44C191.299 123.957 191.838 124.474 191.905 124.578C192.04 124.681 192.108 124.423 192.108 124.009C192.108 123.543 191.636 123.026 191.029 122.871C190.018 122.56 190.018 122.664 190.827 123.44Z" fill="black"/>
<path d="M93.3575 124.112C92.5486 124.837 92.3464 125.354 92.7508 125.664C93.2226 126.027 93.8967 125.82 94.773 125.044L96.0537 123.854L94.5708 124.837C92.7508 125.975 92.4812 125.406 94.1663 124.009C94.773 123.491 95.11 123.078 94.9078 123.078C94.7056 123.078 94.0315 123.543 93.3575 124.112Z" fill="black"/>
<path d="M106.3 124.061C106.03 124.94 106.097 125.147 106.637 124.733C106.974 124.474 107.176 123.905 107.041 123.543C106.839 123.129 106.569 123.388 106.3 124.061Z" fill="black"/>
<path d="M162.449 123.802C162.449 124.216 162.719 124.681 163.056 124.837C163.393 125.044 163.527 124.681 163.325 124.112C162.921 122.922 162.449 122.767 162.449 123.802Z" fill="black"/>
<path d="M193.995 123.698C194.399 124.009 195.208 124.112 195.882 124.009C196.826 123.854 196.691 123.75 195.276 123.491C193.995 123.336 193.59 123.388 193.995 123.698Z" fill="black"/>
<path d="M73.3381 123.957C73.81 124.112 74.4166 124.061 74.6188 123.905C74.8885 123.75 74.484 123.595 73.7425 123.647C73.0011 123.647 72.7989 123.802 73.3381 123.957Z" fill="black"/>
<path d="M121.331 124.009C121.331 124.578 123.623 126.182 124.432 126.182C124.701 126.182 124.297 125.82 123.488 125.354C122.679 124.94 122.14 124.319 122.342 124.061C122.612 123.802 122.41 123.595 122.073 123.595C121.668 123.595 121.331 123.802 121.331 124.009Z" fill="black"/>
<path d="M150.046 124.423C149.777 124.888 149.777 125.406 149.979 125.561C150.114 125.716 150.451 125.406 150.72 124.94C150.99 124.474 150.99 123.957 150.788 123.802C150.653 123.647 150.316 123.957 150.046 124.423Z" fill="black"/>
<path d="M175.93 124.63C176.335 125.199 176.806 125.664 177.009 125.664C177.143 125.664 177.009 125.199 176.604 124.63C176.2 124.061 175.728 123.595 175.526 123.595C175.391 123.595 175.526 124.061 175.93 124.63Z" fill="black"/>
<path d="M77.0453 125.147C76.8431 125.716 76.3712 126.027 75.9668 125.82C75.5623 125.664 75.4949 125.768 75.7646 126.13C76.0342 126.44 76.506 126.596 76.7757 126.44C77.4497 126.182 78.2586 124.112 77.7193 124.112C77.5171 124.112 77.2475 124.578 77.0453 125.147Z" fill="black"/>
<path d="M80.7527 124.474C81.2245 124.63 81.8312 124.578 82.0334 124.423C82.303 124.268 81.8986 124.112 81.1571 124.164C80.4156 124.164 80.2134 124.319 80.7527 124.474Z" fill="black"/>
<path d="M83.7185 124.578C82.977 124.94 82.977 125.044 83.7185 125.302C84.3251 125.457 84.7295 125.251 84.7295 124.837C84.7295 124.423 84.6621 124.112 84.6621 124.112C84.5947 124.112 84.1903 124.319 83.7185 124.578Z" fill="black"/>
<path d="M102.525 124.992C102.996 125.613 103.536 126.027 103.738 125.871C103.94 125.768 103.536 125.251 102.862 124.733C101.716 123.905 101.648 123.905 102.525 124.992Z" fill="black"/>
<path d="M78.8652 125.768C78.8652 125.975 79.9437 126.182 81.2245 126.182C82.5052 126.182 83.5837 126.078 83.5837 125.975C83.5837 125.871 82.5052 125.664 81.2245 125.561C79.9437 125.457 78.8652 125.561 78.8652 125.768Z" fill="black"/>
<path d="M131.577 125.768C131.172 126.182 130.97 126.699 131.24 126.906C132.049 127.475 132.049 128.924 131.307 129.959C130.835 130.683 130.903 131.097 131.509 131.562C132.116 131.976 132.183 131.976 131.914 131.562C131.644 131.2 131.846 130.166 132.386 129.234C133.464 127.113 132.925 124.578 131.577 125.768Z" fill="black"/>
<path d="M165.887 125.975C165.887 126.544 166.089 126.699 166.291 126.285C166.493 125.923 166.426 125.457 166.224 125.302C166.021 125.095 165.819 125.406 165.887 125.975Z" fill="black"/>
<path d="M100.503 126.285C100.435 127.423 101.716 127.993 102.66 127.268C103.266 126.803 103.199 126.699 102.323 126.958C101.581 127.165 101.109 126.958 100.907 126.337C100.637 125.561 100.57 125.509 100.503 126.285Z" fill="black"/>
<path d="M138.52 126.182C138.318 126.492 138.587 126.544 139.126 126.389C140.34 126.027 140.542 125.664 139.598 125.664C139.194 125.664 138.722 125.871 138.52 126.182Z" fill="black"/>
<path d="M163.527 126.337C163.73 126.854 164.134 127.113 164.336 126.958C164.538 126.803 164.336 126.389 163.864 126.027C163.19 125.561 163.123 125.613 163.527 126.337Z" fill="black"/>
<path d="M183.615 126.699C182.469 127.268 180.109 129.131 178.357 130.786C174.447 134.667 171.01 136.012 165.28 136.012C159.483 136.012 152.945 133.787 154.158 132.183C154.36 131.873 154.36 131.769 154.023 131.976C153.754 132.183 153.012 132.08 152.405 131.769C151.799 131.407 152.271 131.925 153.349 132.856C156.315 135.391 159.955 136.529 165.415 136.529C171.481 136.529 175.054 135.236 178.222 131.976C182.132 127.889 184.356 126.544 187.929 126.13L191.097 125.82L188.4 125.768C186.715 125.716 184.895 126.078 183.615 126.699Z" fill="black"/>
<path d="M85.4709 127.061C86.2798 127.475 88.5042 129.389 90.3916 131.2C94.7056 135.443 97.604 136.529 104.142 136.426L108.861 136.374L103.805 136.064C97.8062 135.65 95.0426 134.563 91.3353 131.045C88.1672 128.096 85.4709 126.182 84.5946 126.234C84.2576 126.234 84.5946 126.596 85.4709 127.061Z" fill="black"/>
<path d="M135.891 127.837C135.689 128.717 135.621 129.545 135.824 129.7C136.026 129.855 136.161 129.596 136.161 129.131C136.161 128.613 136.498 128.251 136.835 128.251C137.239 128.251 137.509 127.786 137.509 127.217C137.509 125.561 136.363 126.027 135.891 127.837Z" fill="black"/>
<path d="M168.515 126.596C168.515 126.906 167.976 127.268 167.37 127.372C166.291 127.579 166.291 127.63 167.302 127.682C168.515 127.734 169.594 126.854 168.92 126.337C168.718 126.13 168.515 126.285 168.515 126.596Z" fill="black"/>
<path d="M105.221 127.475C105.221 128.096 104.884 128.82 104.48 129.183C104.143 129.545 104.277 129.493 104.884 129.079C105.491 128.717 105.828 127.941 105.626 127.423C105.356 126.544 105.288 126.544 105.221 127.475Z" fill="black"/>
<path d="M133.195 129.596C132.925 130.321 132.858 131.045 132.992 131.2C133.195 131.304 133.532 130.786 133.734 130.01C134.004 129.286 134.071 128.562 133.936 128.406C133.734 128.303 133.397 128.82 133.195 129.596Z" fill="black"/>
<path d="M163.797 128.717C163.797 129.545 166.359 130.424 168.044 130.166C169.324 129.959 169.257 129.959 167.707 129.855C166.696 129.855 165.415 129.441 164.876 128.976C164.269 128.562 163.797 128.406 163.797 128.717Z" fill="black"/>
<path d="M136.835 129.079C136.835 129.338 137.172 129.855 137.643 130.217C138.25 130.683 138.115 131.097 137.172 131.976L135.891 133.166L137.441 132.028C138.924 130.993 138.992 130.89 137.913 129.752C137.306 129.079 136.835 128.769 136.835 129.079Z" fill="black"/>
<path d="M149.979 129.234C149.776 129.493 149.911 129.855 150.316 130.062C150.653 130.217 150.99 130.01 150.99 129.596C150.99 128.665 150.585 128.51 149.979 129.234Z" fill="black"/>
<path d="M118.635 129.855C118.635 130.114 118.972 130.217 119.309 130.062C119.714 129.907 119.983 129.648 119.983 129.493C119.983 129.389 119.714 129.286 119.309 129.286C118.972 129.286 118.635 129.545 118.635 129.855Z" fill="black"/>
<path d="M100.974 130.166C101.379 130.269 102.188 130.269 102.66 130.166C103.064 130.01 102.727 129.907 101.783 129.907C100.84 129.907 100.503 130.01 100.974 130.166Z" fill="black"/>
<path d="M103.738 132.183C106.097 133.684 109.535 134.253 111.894 133.477C113.377 133.011 113.242 132.959 111.018 133.218C108.254 133.58 104.817 132.701 104.21 131.562C104.008 131.149 103.334 130.838 102.794 130.838C102.053 130.838 102.323 131.252 103.738 132.183Z" fill="black"/>
<path d="M164.673 131.925C163.864 132.545 162.044 133.218 160.629 133.425C158.472 133.735 158.405 133.839 159.955 133.891C161.977 133.942 165.819 132.649 165.819 131.873C165.819 131.666 166.358 131.304 167.033 131.2C167.909 130.993 167.909 130.942 167.167 130.89C166.561 130.89 165.482 131.355 164.673 131.925Z" fill="black"/>
<path d="M115.939 132.649C115.13 133.321 113.175 134.356 111.625 134.977C110.074 135.546 109.333 136.012 109.939 136.012C111.085 136.012 115.736 133.632 117.219 132.235C118.635 130.89 117.691 131.2 115.939 132.649Z" fill="black"/>
<path d="M169.055 133.166C169.19 133.891 169.594 134.46 169.864 134.46C170.538 134.46 169.931 132.494 169.19 132.132C168.92 132.028 168.853 132.494 169.055 133.166Z" fill="black"/>
<path d="M99.5589 133.425C99.3567 133.994 99.4915 134.46 99.8285 134.46C100.166 134.46 100.435 133.994 100.435 133.425C100.435 132.856 100.3 132.39 100.166 132.39C100.031 132.39 99.7611 132.856 99.5589 133.425Z" fill="black"/>
<path d="M102.39 132.649C102.323 132.804 102.255 133.063 102.188 133.27C102.12 133.528 101.851 134.046 101.514 134.46C101.042 135.081 101.109 135.132 101.783 134.615C102.66 133.994 103.334 132.39 102.727 132.39C102.592 132.39 102.39 132.494 102.39 132.649Z" fill="black"/>
<path d="M133.666 134.925C133.734 135.65 134.273 136.27 134.812 136.374C135.486 136.529 135.554 136.477 135.082 136.167C134.61 135.96 134.138 135.287 133.936 134.718C133.599 133.891 133.599 133.942 133.666 134.925Z" fill="black"/>
<path d="M167.167 134.46C167.167 134.718 167.505 134.977 167.909 134.977C168.246 134.977 168.381 134.718 168.179 134.46C167.976 134.149 167.639 133.942 167.437 133.942C167.302 133.942 167.167 134.149 167.167 134.46Z" fill="black"/>
</svg>
